<svg width="204" height="204" viewBox="0 0 204 204" fill="none" xmlns="http://www.w3.org/2000/svg">
<g filter="url(#filter0_d_981_6680)">
<path d="M102 24.2C102 19.6713 98.3193 15.9575 93.8132 16.4095C75.8734 18.2091 58.9398 25.8862 45.717 38.3659C30.4974 52.7302 21.346 72.3701 20.1369 93.2628C18.9279 114.156 25.7529 134.72 39.214 150.744C52.6751 166.768 71.7535 177.039 92.5415 179.453C113.329 181.867 134.254 176.241 151.029 163.728C167.804 151.215 179.159 132.762 182.77 112.148C186.381 91.5345 181.974 70.3201 170.451 52.8504C160.44 37.6726 145.716 26.3194 128.666 20.4567C124.383 18.9841 119.95 21.7556 118.912 26.1638V26.1638C117.874 30.5721 120.632 34.9387 124.877 36.518C137.861 41.349 149.056 50.1987 156.761 61.8803C165.979 75.8561 169.505 92.8276 166.616 109.319C163.727 125.81 154.643 140.572 141.223 150.583C127.803 160.593 111.064 165.093 94.4332 163.162C77.8028 161.231 62.5401 153.014 51.7712 140.195C41.0024 127.376 35.5424 110.924 36.5096 94.2103C37.4768 77.4961 44.798 61.7842 56.9736 50.2927C67.1506 40.6877 80.0752 34.6388 93.8209 32.9117C98.3143 32.3471 102 28.7287 102 24.2V24.2Z" fill="white" fill-opacity="0.1" shape-rendering="crispEdges"/>
</g>
<g filter="url(#filter0_d_981_6681)">
<path d="M121.1974 21.2669C21.3528 18.4257 23.7852 16.2317 26.6111 16.5652V16.5652C29.437 16.8987 31.2918 19.5987 30.7815 22.3981L29.5035 29.4086C29.0953 31.648 26.9496 33.119 24.6889 32.8522V32.8522C22.4282 32.5853 20.6838 30.6553 20.8082 28.3823L21.1974 21.2669Z" fill="url(#paint0_linear_981_6681)"/>
</g>
<defs>
<filter id="filter0_d_981_6680" x="-0.00012207" y="0.372131" width="204" height="203.628" filterUnits="userSpaceOnUse" color-interpolation-filters="sRGB">
<feFlood flood-opacity="0" result="BackgroundImageFix"/>
<feColorMatrix in="SourceAlpha" type="matrix" values="0 0 0 0 0 0 0 0 0 0 0 0 0 0 0 0 0 0 127 0" result="hardAlpha"/>
<feOffset dy="4"/>
<feGaussianBlur stdDeviation="10"/>
<feComposite in2="hardAlpha" operator="out"/>
<feColorMatrix type="matrix" values="0 0 0 0 0.189444 0 0 0 0 0.195352 0 0 0 0 0.366667 0 0 0 0.5 0"/>
<feBlend mode="normal" in2="BackgroundImageFix" result="effect1_dropShadow_981_6680"/>
<feBlend mode="normal" in="SourceGraphic" in2="effect1_dropShadow_981_6680" result="shape"/>
</filter>
<filter id="filter0_d_981_6681" x="0.80188" y="0.531616" width="50.064" height="56.3517" filterUnits="userSpaceOnUse" color-interpolation-filters="sRGB">
<feFlood flood-opacity="0" result="BackgroundImageFix"/>
<feColorMatrix in="SourceAlpha" type="matrix" values="0 0 0 0 0 0 0 0 0 0 0 0 0 0 0 0 0 0 127 0" result="hardAlpha"/>
<feOffset dy="4"/>
<feGaussianBlur stdDeviation="10"/>
<feComposite in2="hardAlpha" operator="out"/>
<feColorMatrix type="matrix" values="0 0 0 0 0.189444 0 0 0 0 0.195352 0 0 0 0 0.366667 0 0 0 0.5 0"/>
<feBlend mode="normal" in2="BackgroundImageFix" result="effect1_dropShadow_981_6681"/>
<feBlend mode="normal" in="SourceGraphic" in2="effect1_dropShadow_981_6681" result="shape"/>
</filter>
<linearGradient id="paint0_linear_981_6681" x1="18.5" y1="48.5" x2="36.8795" y2="10.2468" gradientUnits="userSpaceOnUse">
<stop offset="0.0889715" stop-color="#23EEC9"/>
<stop offset="0.596994" stop-color="#7D3FFF"/>
<stop offset="1" stop-color="#4D54FF"/>
</linearGradient>
</defs>
</svg>
