<svg width="204" height="166" viewBox="0 0 204 166" fill="none" xmlns="http://www.w3.org/2000/svg">
<rect width="82" height="130" rx="5" fill="white" fill-opacity="0.1"/>
<path d="M2.51367 162V152.006H4.14746V162H2.51367ZM13.2734 162H11.6602V157.352C11.6602 156.768 11.5417 156.333 11.3047 156.046C11.0723 155.759 10.7008 155.615 10.1904 155.615C9.51139 155.615 9.01465 155.816 8.7002 156.217C8.38574 156.618 8.22852 157.29 8.22852 158.233V162H6.62207V154.439H7.87988L8.10547 155.431H8.1875C8.41536 155.071 8.73893 154.793 9.1582 154.597C9.57747 154.401 10.0423 154.303 10.5527 154.303C12.3665 154.303 13.2734 155.226 13.2734 157.071V162ZM14.8525 158.931V157.563H18.3662V158.931H14.8525ZM26.6719 162H25.0586V157.352C25.0586 156.768 24.9401 156.333 24.7031 156.046C24.4707 155.759 24.0993 155.615 23.5889 155.615C22.9144 155.615 22.4176 155.818 22.0986 156.224C21.7842 156.625 21.627 157.299 21.627 158.247V162H20.0205V151.363H21.627V154.063C21.627 154.496 21.5996 154.959 21.5449 155.451H21.6475C21.8662 155.087 22.1693 154.804 22.5566 154.604C22.9486 154.403 23.4043 154.303 23.9238 154.303C25.7559 154.303 26.6719 155.226 26.6719 157.071V162ZM35.6133 158.206C35.6133 159.441 35.2965 160.405 34.6631 161.098C34.0296 161.79 33.1478 162.137 32.0176 162.137C31.3112 162.137 30.6868 161.977 30.1445 161.658C29.6022 161.339 29.1852 160.881 28.8936 160.284C28.6019 159.687 28.4561 158.994 28.4561 158.206C28.4561 156.98 28.7705 156.023 29.3994 155.335C30.0283 154.647 30.9147 154.303 32.0586 154.303C33.1523 154.303 34.0182 154.656 34.6562 155.362C35.2943 156.064 35.6133 157.012 35.6133 158.206ZM30.1104 158.206C30.1104 159.951 30.7552 160.824 32.0449 160.824C33.321 160.824 33.959 159.951 33.959 158.206C33.959 156.479 33.3164 155.615 32.0312 155.615C31.3568 155.615 30.8669 155.839 30.5615 156.285C30.2607 156.732 30.1104 157.372 30.1104 158.206ZM42.7979 162L42.5723 161.009H42.4902C42.2669 161.36 41.9479 161.635 41.5332 161.836C41.123 162.036 40.6536 162.137 40.125 162.137C39.209 162.137 38.5254 161.909 38.0742 161.453C37.623 160.997 37.3975 160.307 37.3975 159.382V154.439H39.0176V159.102C39.0176 159.68 39.1361 160.116 39.373 160.407C39.61 160.694 39.9814 160.838 40.4873 160.838C41.1618 160.838 41.6562 160.637 41.9707 160.236C42.2897 159.831 42.4492 159.154 42.4492 158.206V154.439H44.0625V162H42.7979ZM51.4316 159.847C51.4316 160.585 51.1628 161.152 50.625 161.549C50.0872 161.941 49.3171 162.137 48.3145 162.137C47.3073 162.137 46.4984 161.984 45.8877 161.679V160.291C46.7764 160.701 47.6035 160.906 48.3691 160.906C49.3581 160.906 49.8525 160.608 49.8525 160.011C49.8525 159.819 49.7979 159.66 49.6885 159.532C49.5791 159.405 49.3991 159.272 49.1484 159.136C48.8978 158.999 48.5492 158.844 48.1025 158.671C47.2321 158.334 46.6419 157.996 46.332 157.659C46.0267 157.322 45.874 156.884 45.874 156.347C45.874 155.7 46.1338 155.198 46.6533 154.843C47.1774 154.483 47.8883 154.303 48.7861 154.303C49.6748 154.303 50.5156 154.483 51.3086 154.843L50.7891 156.053C49.9733 155.715 49.2874 155.547 48.7314 155.547C47.8838 155.547 47.46 155.788 47.46 156.271C47.46 156.508 47.5693 156.709 47.7881 156.873C48.0114 157.037 48.4945 157.263 49.2373 157.55C49.8617 157.791 50.3151 158.012 50.5977 158.213C50.8802 158.413 51.0898 158.646 51.2266 158.91C51.3633 159.17 51.4316 159.482 51.4316 159.847ZM56.4766 162.137C55.3008 162.137 54.3802 161.795 53.7148 161.111C53.054 160.423 52.7236 159.478 52.7236 158.274C52.7236 157.039 53.0312 156.069 53.6465 155.362C54.2617 154.656 55.1071 154.303 56.1826 154.303C57.1807 154.303 57.9691 154.606 58.5479 155.212C59.1266 155.818 59.416 156.652 59.416 157.714V158.582H54.3779C54.4007 159.316 54.599 159.881 54.9727 160.277C55.3464 160.669 55.8727 160.865 56.5518 160.865C56.9984 160.865 57.4131 160.824 57.7959 160.742C58.1833 160.656 58.598 160.514 59.04 160.318V161.624C58.6481 161.811 58.2516 161.943 57.8506 162.021C57.4495 162.098 56.9915 162.137 56.4766 162.137ZM56.1826 155.52C55.6722 155.52 55.262 155.681 54.9521 156.005C54.6468 156.328 54.4645 156.8 54.4053 157.42H57.8369C57.8278 156.796 57.6774 156.324 57.3857 156.005C57.0941 155.681 56.693 155.52 56.1826 155.52ZM70.7021 162H65.0488V152.006H70.7021V153.387H66.6826V156.107H70.4492V157.475H66.6826V160.612H70.7021V162ZM79.0693 162L78.0713 159.225H74.25L73.2725 162H71.5498L75.2891 151.965H77.0664L80.8057 162H79.0693ZM77.6406 157.816L76.7041 155.096C76.6357 154.913 76.54 154.626 76.417 154.234C76.2985 153.842 76.2165 153.555 76.1709 153.373C76.0479 153.934 75.8678 154.547 75.6309 155.212L74.7285 157.816H77.6406Z" fill="#636E95"/>
<g filter="url(#filter0_di_1032_6379)">
<rect x="102" y="65" width="82" height="65" rx="5" fill="url(#paint0_linear_1032_6379)"/>
</g>
<g filter="url(#filter1_f_1032_6379)">
<rect x="133" y="75" width="20" height="45" fill="white" fill-opacity="0.12"/>
</g>
<path d="M109.073 152.006H110.769L107.269 162H105.546L102.06 152.006H103.741L105.826 158.22C105.936 158.516 106.052 158.899 106.175 159.368C106.298 159.833 106.378 160.179 106.414 160.407C106.473 160.061 106.564 159.66 106.688 159.204C106.811 158.748 106.911 158.411 106.988 158.192L109.073 152.006ZM113.523 162H111.917V154.439H113.523V162ZM111.821 152.437C111.821 152.149 111.899 151.928 112.054 151.773C112.213 151.618 112.439 151.541 112.73 151.541C113.013 151.541 113.232 151.618 113.387 151.773C113.546 151.928 113.626 152.149 113.626 152.437C113.626 152.71 113.546 152.926 113.387 153.086C113.232 153.241 113.013 153.318 112.73 153.318C112.439 153.318 112.213 153.241 112.054 153.086C111.899 152.926 111.821 152.71 111.821 152.437ZM117.55 162L114.679 154.439H116.374L117.912 158.835C118.176 159.573 118.336 160.17 118.391 160.626H118.445C118.486 160.298 118.646 159.701 118.924 158.835L120.462 154.439H122.171L119.286 162H117.55ZM128.05 162L127.729 160.947H127.674C127.309 161.408 126.942 161.722 126.573 161.891C126.204 162.055 125.73 162.137 125.151 162.137C124.409 162.137 123.827 161.936 123.408 161.535C122.993 161.134 122.786 160.567 122.786 159.833C122.786 159.054 123.076 158.466 123.654 158.069C124.233 157.673 125.115 157.456 126.3 157.42L127.605 157.379V156.976C127.605 156.493 127.492 156.132 127.264 155.896C127.04 155.654 126.692 155.533 126.218 155.533C125.83 155.533 125.459 155.59 125.104 155.704C124.748 155.818 124.406 155.952 124.078 156.107L123.559 154.959C123.969 154.745 124.418 154.583 124.905 154.474C125.393 154.36 125.853 154.303 126.286 154.303C127.248 154.303 127.972 154.512 128.46 154.932C128.952 155.351 129.198 156.009 129.198 156.907V162H128.05ZM125.657 160.906C126.241 160.906 126.708 160.744 127.059 160.421C127.414 160.093 127.592 159.635 127.592 159.047V158.391L126.621 158.432C125.865 158.459 125.313 158.587 124.967 158.814C124.625 159.038 124.454 159.382 124.454 159.847C124.454 160.184 124.554 160.446 124.755 160.633C124.955 160.815 125.256 160.906 125.657 160.906ZM141.448 162L140.45 159.225H136.629L135.651 162H133.929L137.668 151.965H139.445L143.185 162H141.448ZM140.02 157.816L139.083 155.096C139.015 154.913 138.919 154.626 138.796 154.234C138.677 153.842 138.595 153.555 138.55 153.373C138.427 153.934 138.247 154.547 138.01 155.212L137.107 157.816H140.02ZM150.984 162H149.371V157.352C149.371 156.768 149.253 156.333 149.016 156.046C148.783 155.759 148.412 155.615 147.901 155.615C147.222 155.615 146.726 155.816 146.411 156.217C146.097 156.618 145.939 157.29 145.939 158.233V162H144.333V154.439H145.591L145.816 155.431H145.898C146.126 155.071 146.45 154.793 146.869 154.597C147.288 154.401 147.753 154.303 148.264 154.303C150.077 154.303 150.984 155.226 150.984 157.071V162ZM157.95 162L157.629 160.947H157.574C157.21 161.408 156.843 161.722 156.474 161.891C156.104 162.055 155.631 162.137 155.052 162.137C154.309 162.137 153.728 161.936 153.309 161.535C152.894 161.134 152.687 160.567 152.687 159.833C152.687 159.054 152.976 158.466 153.555 158.069C154.133 157.673 155.015 157.456 156.2 157.42L157.506 157.379V156.976C157.506 156.493 157.392 156.132 157.164 155.896C156.941 155.654 156.592 155.533 156.118 155.533C155.731 155.533 155.359 155.59 155.004 155.704C154.648 155.818 154.307 155.952 153.979 156.107L153.459 154.959C153.869 154.745 154.318 154.583 154.806 154.474C155.293 154.36 155.754 154.303 156.187 154.303C157.148 154.303 157.873 154.512 158.36 154.932C158.853 155.351 159.099 156.009 159.099 156.907V162H157.95ZM155.558 160.906C156.141 160.906 156.608 160.744 156.959 160.421C157.314 160.093 157.492 159.635 157.492 159.047V158.391L156.521 158.432C155.765 158.459 155.214 158.587 154.867 158.814C154.525 159.038 154.354 159.382 154.354 159.847C154.354 160.184 154.455 160.446 154.655 160.633C154.856 160.815 155.157 160.906 155.558 160.906ZM162.947 162H161.341V151.363H162.947V162ZM164.103 154.439H165.853L167.391 158.726C167.623 159.336 167.778 159.91 167.855 160.448H167.91C167.951 160.198 168.026 159.895 168.136 159.539C168.245 159.179 168.824 157.479 169.872 154.439H171.608L168.375 163.005C167.787 164.577 166.807 165.363 165.436 165.363C165.08 165.363 164.734 165.325 164.396 165.247V163.976C164.638 164.03 164.914 164.058 165.224 164.058C165.998 164.058 166.543 163.609 166.857 162.711L167.138 162L164.103 154.439ZM177.836 159.847C177.836 160.585 177.567 161.152 177.029 161.549C176.492 161.941 175.721 162.137 174.719 162.137C173.712 162.137 172.903 161.984 172.292 161.679V160.291C173.181 160.701 174.008 160.906 174.773 160.906C175.762 160.906 176.257 160.608 176.257 160.011C176.257 159.819 176.202 159.66 176.093 159.532C175.983 159.405 175.803 159.272 175.553 159.136C175.302 158.999 174.953 158.844 174.507 158.671C173.636 158.334 173.046 157.996 172.736 157.659C172.431 157.322 172.278 156.884 172.278 156.347C172.278 155.7 172.538 155.198 173.058 154.843C173.582 154.483 174.293 154.303 175.19 154.303C176.079 154.303 176.92 154.483 177.713 154.843L177.193 156.053C176.378 155.715 175.692 155.547 175.136 155.547C174.288 155.547 173.864 155.788 173.864 156.271C173.864 156.508 173.974 156.709 174.192 156.873C174.416 157.037 174.899 157.263 175.642 157.55C176.266 157.791 176.719 158.012 177.002 158.213C177.285 158.413 177.494 158.646 177.631 158.91C177.768 159.17 177.836 159.482 177.836 159.847ZM182.396 160.838C182.787 160.838 183.179 160.776 183.571 160.653V161.863C183.394 161.941 183.163 162.005 182.881 162.055C182.603 162.109 182.313 162.137 182.013 162.137C180.491 162.137 179.729 161.335 179.729 159.73V155.656H178.697V154.945L179.805 154.357L180.352 152.758H181.343V154.439H183.496V155.656H181.343V159.703C181.343 160.09 181.438 160.378 181.63 160.564C181.826 160.747 182.081 160.838 182.396 160.838Z" fill="#636E95"/>
<defs>
<filter id="filter0_di_1032_6379" x="82" y="49" width="122" height="105" filterUnits="userSpaceOnUse" color-interpolation-filters="sRGB">
<feFlood flood-opacity="0" result="BackgroundImageFix"/>
<feColorMatrix in="SourceAlpha" type="matrix" values="0 0 0 0 0 0 0 0 0 0 0 0 0 0 0 0 0 0 127 0" result="hardAlpha"/>
<feOffset dy="4"/>
<feGaussianBlur stdDeviation="10"/>
<feComposite in2="hardAlpha" operator="out"/>
<feColorMatrix type="matrix" values="0 0 0 0 0.189444 0 0 0 0 0.195352 0 0 0 0 0.366667 0 0 0 0.5 0"/>
<feBlend mode="normal" in2="BackgroundImageFix" result="effect1_dropShadow_1032_6379"/>
<feBlend mode="normal" in="SourceGraphic" in2="effect1_dropShadow_1032_6379" result="shape"/>
<feColorMatrix in="SourceAlpha" type="matrix" values="0 0 0 0 0 0 0 0 0 0 0 0 0 0 0 0 0 0 127 0" result="hardAlpha"/>
<feOffset dx="2" dy="2"/>
<feGaussianBlur stdDeviation="15"/>
<feComposite in2="hardAlpha" operator="arithmetic" k2="-1" k3="1"/>
<feColorMatrix type="matrix" values="0 0 0 0 0 0 0 0 0 0 0 0 0 0 0 0 0 0 0.1 0"/>
<feBlend mode="normal" in2="shape" result="effect2_innerShadow_1032_6379"/>
</filter>
<filter id="filter1_f_1032_6379" x="119" y="61" width="48" height="73" filterUnits="userSpaceOnUse" color-interpolation-filters="sRGB">
<feFlood flood-opacity="0" result="BackgroundImageFix"/>
<feBlend mode="normal" in="SourceGraphic" in2="BackgroundImageFix" result="shape"/>
<feGaussianBlur stdDeviation="7" result="effect1_foregroundBlur_1032_6379"/>
</filter>
<linearGradient id="paint0_linear_1032_6379" x1="123.525" y1="151.895" x2="162.041" y2="56.165" gradientUnits="userSpaceOnUse">
<stop stop-color="#23EEC9"/>
<stop offset="0.648958" stop-color="#7D3FFF"/>
<stop offset="1" stop-color="#4D54FF"/>
</linearGradient>
</defs>
</svg>
