<svg width="126" height="30" viewBox="0 0 126 30" fill="none" xmlns="http://www.w3.org/2000/svg">
<path d="M104.527 6.90794C105.769 6.90794 106.775 5.94385 106.775 4.75457C106.775 3.56529 105.769 2.6012 104.527 2.6012C103.285 2.6012 102.279 3.56529 102.279 4.75457C102.279 5.94385 103.285 6.90794 104.527 6.90794Z" fill="black"/>
<path d="M55.9126 24.3601C50.9641 24.3601 47.373 21.0375 47.373 16.4632C47.373 11.8889 50.9641 8.59229 55.9126 8.59229C58.3235 8.59229 60.508 9.37609 62.0659 10.7975C63.624 12.219 64.4854 14.2368 64.4854 16.4632C64.4854 18.6897 63.624 20.7063 62.0659 22.1431C60.508 23.5798 58.3222 24.3601 55.9126 24.3601ZM55.9126 12.0257C53.3406 12.0257 51.5451 13.8502 51.5451 16.4609C51.5451 19.0715 53.3406 20.896 55.9126 20.896C58.5426 20.896 60.3086 19.1139 60.3086 16.4609C60.3086 13.8077 58.5426 12.0221 55.9126 12.0221V12.0257Z" fill="black"/>
<path d="M70.4602 2.9408H66.3176V24.1634H70.4602V2.9408Z" fill="black"/>
<path d="M76.6982 2.9408H72.5557V24.1634H76.6982V2.9408Z" fill="black"/>
<path d="M87.0764 24.3601C82.1279 24.3601 78.5369 21.0375 78.5369 16.4632C78.5369 11.8889 82.1279 8.59229 87.0764 8.59229C89.4873 8.59229 91.6716 9.37609 93.2297 10.7975C94.7877 12.219 95.6492 14.2368 95.6492 16.4632C95.6492 18.6897 94.7877 20.7063 93.2297 22.1431C91.6716 23.5798 89.4835 24.3601 87.0764 24.3601ZM87.0764 12.0257C84.5043 12.0257 82.7076 13.8502 82.7076 16.4609C82.7076 19.0715 84.5043 20.896 87.0764 20.896C89.7064 20.896 91.4724 19.1139 91.4724 16.4609C91.4724 13.8077 89.7064 12.0221 87.0764 12.0221V12.0257Z" fill="black"/>
<path d="M106.598 8.58984H102.456V24.1631H106.598V8.58984Z" fill="black"/>
<path d="M117.234 24.3601C112.286 24.3601 108.695 21.0375 108.695 16.4632C108.695 11.8889 112.286 8.59229 117.234 8.59229C119.646 8.59229 121.829 9.37609 123.387 10.7975C124.945 12.219 125.807 14.2368 125.807 16.4632C125.807 18.6897 124.945 20.7063 123.387 22.1431C121.829 23.5798 119.643 24.3601 117.234 24.3601ZM117.234 12.0257C114.663 12.0257 112.866 13.8502 112.866 16.4609C112.866 19.0715 114.663 20.896 117.234 20.896C119.864 20.896 121.631 19.1139 121.631 16.4609C121.631 13.8077 119.864 12.0221 117.234 12.0221V12.0257Z" fill="black"/>
<path d="M28.843 29.7016V8.47791H32.9856V9.60585C34.3407 8.9244 35.8509 8.57533 37.3814 8.58986C39.7935 8.58986 41.9766 9.37367 43.5348 10.7951C45.0927 12.2165 45.9542 14.2344 45.9542 16.4608C45.9542 18.6872 45.0927 20.7039 43.5348 22.1406C41.9766 23.5774 39.7948 24.3601 37.3814 24.3601C35.8502 24.3743 34.3392 24.0228 32.9856 23.337V29.7016H28.843ZM37.3814 12.0221C34.8106 12.0221 33.0137 13.8466 33.0137 16.4573C33.0137 19.0679 34.8106 20.8925 37.3814 20.8925C40.0112 20.8925 41.7786 19.1104 41.7786 16.4573C41.7786 13.8042 40.0112 12.0221 37.3814 12.0221Z" fill="black"/>
<path d="M98.4972 24.162C98.1446 24.1622 97.7999 24.0623 97.5066 23.8749C97.2134 23.6874 96.9849 23.421 96.8498 23.1091C96.7147 22.7971 96.6793 22.4539 96.748 22.1227C96.8169 21.7916 96.9866 21.4874 97.2359 21.2486C97.4851 21.0099 97.8027 20.8472 98.1485 20.7815C98.4944 20.7157 98.8527 20.7496 99.1785 20.8788C99.504 21.0082 99.7823 21.2271 99.9781 21.508C100.174 21.7888 100.278 22.1189 100.278 22.4566C100.277 22.9087 100.089 23.3421 99.7556 23.6618C99.4217 23.9816 98.9692 24.1615 98.4972 24.162Z" fill="black"/>
<path d="M23.342 4.66736H19.4321L21.459 8.02883L23.342 4.66736Z" fill="#FFC127"/>
<path d="M25.5472 18.1628L22.9051 13.7736L14.5673 0L0 24.162H7.80238C8.84468 24.1607 9.86864 23.8993 10.7731 23.4032C11.6776 22.907 12.4314 22.1936 12.9601 21.3334L16.9486 14.6705L14.7334 10.9967L9.91911 19.0233C9.64608 19.4686 9.25648 19.8379 8.78876 20.0948C8.32107 20.3517 7.79145 20.4873 7.25226 20.4883H6.66033L14.5698 7.36766L24.6968 24.162H27.5679V21.4877L25.5559 18.1628H25.5472Z" fill="black"/>
</svg>
