<svg width="204" height="204" viewBox="0 0 204 204" fill="none" xmlns="http://www.w3.org/2000/svg">
<g filter="url(#filter0_d_1778_15991)">
<path d="M102 24.2C102 19.6713 98.3193 15.9575 93.8132 16.4095C75.8734 18.2091 58.9398 25.8862 45.717 38.3659C30.4974 52.7302 21.346 72.3701 20.1369 93.2628C18.9279 114.156 25.7529 134.72 39.214 150.744C52.6751 166.768 71.7535 177.039 92.5415 179.453C113.329 181.867 134.254 176.241 151.029 163.728C167.804 151.215 179.159 132.762 182.77 112.148C186.381 91.5345 181.974 70.3201 170.451 52.8504C160.44 37.6726 145.716 26.3194 128.666 20.4567C124.383 18.9841 119.95 21.7556 118.912 26.1638V26.1638C117.874 30.5721 120.632 34.9387 124.877 36.518C137.861 41.349 149.056 50.1987 156.761 61.8803C165.979 75.8561 169.505 92.8276 166.616 109.319C163.727 125.81 154.643 140.572 141.223 150.583C127.803 160.593 111.064 165.093 94.4332 163.162C77.8028 161.231 62.5401 153.014 51.7712 140.195C41.0024 127.376 35.5424 110.924 36.5096 94.2103C37.4768 77.4961 44.798 61.7842 56.9736 50.2927C67.1506 40.6877 80.0752 34.6388 93.8209 32.9117C98.3143 32.3471 102 28.7287 102 24.2V24.2Z" fill="white" fill-opacity="0.1" shape-rendering="crispEdges"/>
</g>
<g filter="url(#filter1_d_1778_15991)">
<path d="M106.197 21.2669C106.353 18.4257 108.785 16.2317 111.611 16.5652V16.5652C114.437 16.8987 116.292 19.5987 115.781 22.3981L114.504 29.4086C114.095 31.648 111.95 33.119 109.689 32.8522V32.8522C107.428 32.5853 105.684 30.6553 105.808 28.3823L106.197 21.2669Z" fill="url(#paint0_linear_1778_15991)"/>
</g>
<path d="M94.1406 96H91.3867V84.9375C91.3867 83.6172 91.418 82.5703 91.4805 81.7969C91.3008 81.9844 91.0781 82.1914 90.8125 82.418C90.5547 82.6445 89.6797 83.3633 88.1875 84.5742L86.8047 82.8281L91.8438 78.8672H94.1406V96ZM101.98 84C101.98 85.1641 102.094 86.0312 102.32 86.6016C102.547 87.1719 102.918 87.457 103.434 87.457C104.465 87.457 104.98 86.3047 104.98 84C104.98 81.6953 104.465 80.543 103.434 80.543C102.918 80.543 102.547 80.8281 102.32 81.3984C102.094 81.9688 101.98 82.8359 101.98 84ZM107.254 83.9766C107.254 85.7734 106.93 87.125 106.281 88.0312C105.641 88.9297 104.691 89.3789 103.434 89.3789C102.246 89.3789 101.324 88.9141 100.668 87.9844C100.02 87.0469 99.6953 85.7109 99.6953 83.9766C99.6953 80.4062 100.941 78.6211 103.434 78.6211C104.66 78.6211 105.602 79.0859 106.258 80.0156C106.922 80.9375 107.254 82.2578 107.254 83.9766ZM113.137 90.8438C113.137 92.0078 113.25 92.8789 113.477 93.457C113.711 94.0352 114.086 94.3242 114.602 94.3242C115.625 94.3242 116.137 93.1641 116.137 90.8438C116.137 88.5547 115.625 87.4102 114.602 87.4102C114.086 87.4102 113.711 87.6914 113.477 88.2539C113.25 88.8164 113.137 89.6797 113.137 90.8438ZM118.41 90.8438C118.41 92.6406 118.086 93.9883 117.438 94.8867C116.789 95.7852 115.844 96.2344 114.602 96.2344C113.414 96.2344 112.492 95.7734 111.836 94.8516C111.18 93.9219 110.852 92.5859 110.852 90.8438C110.852 87.2734 112.102 85.4883 114.602 85.4883C115.805 85.4883 116.738 85.9492 117.402 86.8711C118.074 87.793 118.41 89.1172 118.41 90.8438ZM114.93 78.8672L105.426 96H103.152L112.656 78.8672H114.93Z" fill="white"/>
<path d="M70.9424 112.656H69.0967V119H67.4834V112.656H66.2393V111.904L67.4834 111.412V110.92C67.4834 110.027 67.693 109.366 68.1123 108.938C68.5316 108.505 69.1719 108.288 70.0332 108.288C70.5983 108.288 71.1543 108.382 71.7012 108.568L71.2773 109.785C70.8809 109.658 70.5026 109.594 70.1426 109.594C69.778 109.594 69.5114 109.708 69.3428 109.936C69.1787 110.159 69.0967 110.496 69.0967 110.947V111.439H70.9424V112.656ZM76.0693 111.303C76.3929 111.303 76.6595 111.326 76.8691 111.371L76.7119 112.868C76.484 112.813 76.2471 112.786 76.001 112.786C75.3584 112.786 74.8366 112.996 74.4355 113.415C74.0391 113.834 73.8408 114.379 73.8408 115.049V119H72.2344V111.439H73.4922L73.7041 112.772H73.7861C74.0368 112.321 74.3626 111.964 74.7637 111.699C75.1693 111.435 75.6045 111.303 76.0693 111.303ZM84.9834 115.206C84.9834 116.441 84.6667 117.405 84.0332 118.098C83.3997 118.79 82.5179 119.137 81.3877 119.137C80.6813 119.137 80.057 118.977 79.5146 118.658C78.9723 118.339 78.5553 117.881 78.2637 117.284C77.972 116.687 77.8262 115.994 77.8262 115.206C77.8262 113.98 78.1406 113.023 78.7695 112.335C79.3984 111.647 80.2848 111.303 81.4287 111.303C82.5225 111.303 83.3883 111.656 84.0264 112.362C84.6644 113.064 84.9834 114.012 84.9834 115.206ZM79.4805 115.206C79.4805 116.951 80.1253 117.824 81.415 117.824C82.6911 117.824 83.3291 116.951 83.3291 115.206C83.3291 113.479 82.6865 112.615 81.4014 112.615C80.7269 112.615 80.237 112.839 79.9316 113.285C79.6309 113.732 79.4805 114.372 79.4805 115.206ZM93.207 119H91.5938V114.338C91.5938 113.759 91.4844 113.328 91.2656 113.046C91.0469 112.759 90.7051 112.615 90.2402 112.615C89.6204 112.615 89.1647 112.818 88.873 113.224C88.5859 113.625 88.4424 114.295 88.4424 115.233V119H86.8359V111.439H88.0938L88.3193 112.431H88.4014C88.611 112.071 88.9141 111.793 89.3105 111.597C89.7116 111.401 90.1514 111.303 90.6299 111.303C91.792 111.303 92.5622 111.699 92.9404 112.492H93.0498C93.2731 112.118 93.5876 111.827 93.9932 111.617C94.3988 111.408 94.8636 111.303 95.3877 111.303C96.29 111.303 96.9463 111.531 97.3564 111.986C97.7712 112.442 97.9785 113.137 97.9785 114.071V119H96.3721V114.338C96.3721 113.759 96.2604 113.328 96.0371 113.046C95.8184 112.759 95.4766 112.615 95.0117 112.615C94.3874 112.615 93.9294 112.811 93.6377 113.203C93.3506 113.59 93.207 114.188 93.207 114.994V119ZM108.041 119H106.435V112.547C106.435 111.777 106.453 111.166 106.489 110.715C106.384 110.824 106.255 110.945 106.1 111.077C105.949 111.209 105.439 111.629 104.568 112.335L103.762 111.316L106.701 109.006H108.041V119ZM118.097 114.003C118.097 115.739 117.816 117.029 117.256 117.872C116.7 118.715 115.848 119.137 114.699 119.137C113.587 119.137 112.744 118.701 112.17 117.831C111.596 116.961 111.309 115.685 111.309 114.003C111.309 112.239 111.587 110.94 112.143 110.106C112.703 109.268 113.555 108.849 114.699 108.849C115.816 108.849 116.661 109.286 117.235 110.161C117.81 111.036 118.097 112.317 118.097 114.003ZM112.936 114.003C112.936 115.366 113.075 116.339 113.353 116.922C113.635 117.505 114.084 117.797 114.699 117.797C115.314 117.797 115.763 117.501 116.046 116.908C116.333 116.316 116.477 115.347 116.477 114.003C116.477 112.663 116.333 111.695 116.046 111.098C115.763 110.496 115.314 110.195 114.699 110.195C114.084 110.195 113.635 110.489 113.353 111.077C113.075 111.665 112.936 112.64 112.936 114.003ZM126.095 114.003C126.095 115.739 125.814 117.029 125.254 117.872C124.698 118.715 123.846 119.137 122.697 119.137C121.585 119.137 120.742 118.701 120.168 117.831C119.594 116.961 119.307 115.685 119.307 114.003C119.307 112.239 119.585 110.94 120.141 110.106C120.701 109.268 121.553 108.849 122.697 108.849C123.814 108.849 124.659 109.286 125.233 110.161C125.808 111.036 126.095 112.317 126.095 114.003ZM120.934 114.003C120.934 115.366 121.073 116.339 121.351 116.922C121.633 117.505 122.082 117.797 122.697 117.797C123.312 117.797 123.761 117.501 124.044 116.908C124.331 116.316 124.475 115.347 124.475 114.003C124.475 112.663 124.331 111.695 124.044 111.098C123.761 110.496 123.312 110.195 122.697 110.195C122.082 110.195 121.633 110.489 121.351 111.077C121.073 111.665 120.934 112.64 120.934 114.003ZM128.61 112C128.61 112.679 128.676 113.185 128.809 113.518C128.941 113.85 129.157 114.017 129.458 114.017C130.06 114.017 130.36 113.344 130.36 112C130.36 110.656 130.06 109.983 129.458 109.983C129.157 109.983 128.941 110.15 128.809 110.482C128.676 110.815 128.61 111.321 128.61 112ZM131.687 111.986C131.687 113.035 131.497 113.823 131.119 114.352C130.745 114.876 130.192 115.138 129.458 115.138C128.765 115.138 128.228 114.867 127.845 114.324C127.466 113.777 127.277 112.998 127.277 111.986C127.277 109.904 128.004 108.862 129.458 108.862C130.174 108.862 130.723 109.133 131.105 109.676C131.493 110.214 131.687 110.984 131.687 111.986ZM135.118 115.992C135.118 116.671 135.184 117.179 135.316 117.517C135.453 117.854 135.672 118.022 135.973 118.022C136.57 118.022 136.868 117.346 136.868 115.992C136.868 114.657 136.57 113.989 135.973 113.989C135.672 113.989 135.453 114.153 135.316 114.481C135.184 114.81 135.118 115.313 135.118 115.992ZM138.194 115.992C138.194 117.04 138.005 117.826 137.627 118.351C137.249 118.875 136.697 119.137 135.973 119.137C135.28 119.137 134.742 118.868 134.359 118.33C133.977 117.788 133.785 117.008 133.785 115.992C133.785 113.91 134.514 112.868 135.973 112.868C136.674 112.868 137.219 113.137 137.606 113.675C137.998 114.213 138.194 114.985 138.194 115.992ZM136.164 109.006L130.62 119H129.294L134.838 109.006H136.164Z" fill="#636E95"/>
<defs>
<filter id="filter0_d_1778_15991" x="-0.00012207" y="0.372131" width="204" height="203.628" filterUnits="userSpaceOnUse" color-interpolation-filters="sRGB">
<feFlood flood-opacity="0" result="BackgroundImageFix"/>
<feColorMatrix in="SourceAlpha" type="matrix" values="0 0 0 0 0 0 0 0 0 0 0 0 0 0 0 0 0 0 127 0" result="hardAlpha"/>
<feOffset dy="4"/>
<feGaussianBlur stdDeviation="10"/>
<feComposite in2="hardAlpha" operator="out"/>
<feColorMatrix type="matrix" values="0 0 0 0 0.189444 0 0 0 0 0.195352 0 0 0 0 0.366667 0 0 0 0.5 0"/>
<feBlend mode="normal" in2="BackgroundImageFix" result="effect1_dropShadow_1778_15991"/>
<feBlend mode="normal" in="SourceGraphic" in2="effect1_dropShadow_1778_15991" result="shape"/>
</filter>
<filter id="filter1_d_1778_15991" x="85.8019" y="0.531616" width="50.064" height="56.3517" filterUnits="userSpaceOnUse" color-interpolation-filters="sRGB">
<feFlood flood-opacity="0" result="BackgroundImageFix"/>
<feColorMatrix in="SourceAlpha" type="matrix" values="0 0 0 0 0 0 0 0 0 0 0 0 0 0 0 0 0 0 127 0" result="hardAlpha"/>
<feOffset dy="4"/>
<feGaussianBlur stdDeviation="10"/>
<feComposite in2="hardAlpha" operator="out"/>
<feColorMatrix type="matrix" values="0 0 0 0 0.189444 0 0 0 0 0.195352 0 0 0 0 0.366667 0 0 0 0.5 0"/>
<feBlend mode="normal" in2="BackgroundImageFix" result="effect1_dropShadow_1778_15991"/>
<feBlend mode="normal" in="SourceGraphic" in2="effect1_dropShadow_1778_15991" result="shape"/>
</filter>
<linearGradient id="paint0_linear_1778_15991" x1="103.5" y1="48.5" x2="121.879" y2="10.2468" gradientUnits="userSpaceOnUse">
<stop offset="0.0889715" stop-color="#23EEC9"/>
<stop offset="0.596994" stop-color="#7D3FFF"/>
<stop offset="1" stop-color="#4D54FF"/>
</linearGradient>
</defs>
</svg>
