<svg width="204" height="172" viewBox="0 0 204 172" fill="none" xmlns="http://www.w3.org/2000/svg">
<rect y="6" width="82" height="130" rx="5" fill="white" fill-opacity="0.1"/>
<path d="M2.51367 168V158.006H4.14746V168H2.51367ZM13.2734 168H11.6602V163.352C11.6602 162.768 11.5417 162.333 11.3047 162.046C11.0723 161.759 10.7008 161.615 10.1904 161.615C9.51139 161.615 9.01465 161.816 8.7002 162.217C8.38574 162.618 8.22852 163.29 8.22852 164.233V168H6.62207V160.439H7.87988L8.10547 161.431H8.1875C8.41536 161.071 8.73893 160.793 9.1582 160.597C9.57747 160.401 10.0423 160.303 10.5527 160.303C12.3665 160.303 13.2734 161.226 13.2734 163.071V168ZM14.8525 164.931V163.563H18.3662V164.931H14.8525ZM26.6719 168H25.0586V163.352C25.0586 162.768 24.9401 162.333 24.7031 162.046C24.4707 161.759 24.0993 161.615 23.5889 161.615C22.9144 161.615 22.4176 161.818 22.0986 162.224C21.7842 162.625 21.627 163.299 21.627 164.247V168H20.0205V157.363H21.627V160.063C21.627 160.496 21.5996 160.959 21.5449 161.451H21.6475C21.8662 161.087 22.1693 160.804 22.5566 160.604C22.9486 160.403 23.4043 160.303 23.9238 160.303C25.7559 160.303 26.6719 161.226 26.6719 163.071V168ZM35.6133 164.206C35.6133 165.441 35.2965 166.405 34.6631 167.098C34.0296 167.79 33.1478 168.137 32.0176 168.137C31.3112 168.137 30.6868 167.977 30.1445 167.658C29.6022 167.339 29.1852 166.881 28.8936 166.284C28.6019 165.687 28.4561 164.994 28.4561 164.206C28.4561 162.98 28.7705 162.023 29.3994 161.335C30.0283 160.647 30.9147 160.303 32.0586 160.303C33.1523 160.303 34.0182 160.656 34.6562 161.362C35.2943 162.064 35.6133 163.012 35.6133 164.206ZM30.1104 164.206C30.1104 165.951 30.7552 166.824 32.0449 166.824C33.321 166.824 33.959 165.951 33.959 164.206C33.959 162.479 33.3164 161.615 32.0312 161.615C31.3568 161.615 30.8669 161.839 30.5615 162.285C30.2607 162.732 30.1104 163.372 30.1104 164.206ZM42.7979 168L42.5723 167.009H42.4902C42.2669 167.36 41.9479 167.635 41.5332 167.836C41.123 168.036 40.6536 168.137 40.125 168.137C39.209 168.137 38.5254 167.909 38.0742 167.453C37.623 166.997 37.3975 166.307 37.3975 165.382V160.439H39.0176V165.102C39.0176 165.68 39.1361 166.116 39.373 166.407C39.61 166.694 39.9814 166.838 40.4873 166.838C41.1618 166.838 41.6562 166.637 41.9707 166.236C42.2897 165.831 42.4492 165.154 42.4492 164.206V160.439H44.0625V168H42.7979ZM51.4316 165.847C51.4316 166.585 51.1628 167.152 50.625 167.549C50.0872 167.941 49.3171 168.137 48.3145 168.137C47.3073 168.137 46.4984 167.984 45.8877 167.679V166.291C46.7764 166.701 47.6035 166.906 48.3691 166.906C49.3581 166.906 49.8525 166.608 49.8525 166.011C49.8525 165.819 49.7979 165.66 49.6885 165.532C49.5791 165.405 49.3991 165.272 49.1484 165.136C48.8978 164.999 48.5492 164.844 48.1025 164.671C47.2321 164.334 46.6419 163.996 46.332 163.659C46.0267 163.322 45.874 162.884 45.874 162.347C45.874 161.7 46.1338 161.198 46.6533 160.843C47.1774 160.483 47.8883 160.303 48.7861 160.303C49.6748 160.303 50.5156 160.483 51.3086 160.843L50.7891 162.053C49.9733 161.715 49.2874 161.547 48.7314 161.547C47.8838 161.547 47.46 161.788 47.46 162.271C47.46 162.508 47.5693 162.709 47.7881 162.873C48.0114 163.037 48.4945 163.263 49.2373 163.55C49.8617 163.791 50.3151 164.012 50.5977 164.213C50.8802 164.413 51.0898 164.646 51.2266 164.91C51.3633 165.17 51.4316 165.482 51.4316 165.847ZM56.4766 168.137C55.3008 168.137 54.3802 167.795 53.7148 167.111C53.054 166.423 52.7236 165.478 52.7236 164.274C52.7236 163.039 53.0312 162.069 53.6465 161.362C54.2617 160.656 55.1071 160.303 56.1826 160.303C57.1807 160.303 57.9691 160.606 58.5479 161.212C59.1266 161.818 59.416 162.652 59.416 163.714V164.582H54.3779C54.4007 165.316 54.599 165.881 54.9727 166.277C55.3464 166.669 55.8727 166.865 56.5518 166.865C56.9984 166.865 57.4131 166.824 57.7959 166.742C58.1833 166.656 58.598 166.514 59.04 166.318V167.624C58.6481 167.811 58.2516 167.943 57.8506 168.021C57.4495 168.098 56.9915 168.137 56.4766 168.137ZM56.1826 161.52C55.6722 161.52 55.262 161.681 54.9521 162.005C54.6468 162.328 54.4645 162.8 54.4053 163.42H57.8369C57.8278 162.796 57.6774 162.324 57.3857 162.005C57.0941 161.681 56.693 161.52 56.1826 161.52ZM70.7021 168H65.0488V158.006H70.7021V159.387H66.6826V162.107H70.4492V163.475H66.6826V166.612H70.7021V168ZM79.0693 168L78.0713 165.225H74.25L73.2725 168H71.5498L75.2891 157.965H77.0664L80.8057 168H79.0693ZM77.6406 163.816L76.7041 161.096C76.6357 160.913 76.54 160.626 76.417 160.234C76.2985 159.842 76.2165 159.555 76.1709 159.373C76.0479 159.934 75.8678 160.547 75.6309 161.212L74.7285 163.816H77.6406Z" fill="#636E95"/>
<g filter="url(#filter0_di_1778_15990)">
<rect x="102" y="71" width="82" height="65" rx="5" fill="url(#paint0_linear_1778_15990)"/>
</g>
<g filter="url(#filter1_f_1778_15990)">
<rect x="133" y="81" width="20" height="45" fill="white" fill-opacity="0.12"/>
</g>
<path d="M109.073 158.006H110.769L107.269 168H105.546L102.06 158.006H103.741L105.826 164.22C105.936 164.516 106.052 164.899 106.175 165.368C106.298 165.833 106.378 166.179 106.414 166.407C106.473 166.061 106.564 165.66 106.688 165.204C106.811 164.748 106.911 164.411 106.988 164.192L109.073 158.006ZM113.523 168H111.917V160.439H113.523V168ZM111.821 158.437C111.821 158.149 111.899 157.928 112.054 157.773C112.213 157.618 112.439 157.541 112.73 157.541C113.013 157.541 113.232 157.618 113.387 157.773C113.546 157.928 113.626 158.149 113.626 158.437C113.626 158.71 113.546 158.926 113.387 159.086C113.232 159.241 113.013 159.318 112.73 159.318C112.439 159.318 112.213 159.241 112.054 159.086C111.899 158.926 111.821 158.71 111.821 158.437ZM117.55 168L114.679 160.439H116.374L117.912 164.835C118.176 165.573 118.336 166.17 118.391 166.626H118.445C118.486 166.298 118.646 165.701 118.924 164.835L120.462 160.439H122.171L119.286 168H117.55ZM128.05 168L127.729 166.947H127.674C127.309 167.408 126.942 167.722 126.573 167.891C126.204 168.055 125.73 168.137 125.151 168.137C124.409 168.137 123.827 167.936 123.408 167.535C122.993 167.134 122.786 166.567 122.786 165.833C122.786 165.054 123.076 164.466 123.654 164.069C124.233 163.673 125.115 163.456 126.3 163.42L127.605 163.379V162.976C127.605 162.493 127.492 162.132 127.264 161.896C127.04 161.654 126.692 161.533 126.218 161.533C125.83 161.533 125.459 161.59 125.104 161.704C124.748 161.818 124.406 161.952 124.078 162.107L123.559 160.959C123.969 160.745 124.418 160.583 124.905 160.474C125.393 160.36 125.853 160.303 126.286 160.303C127.248 160.303 127.972 160.512 128.46 160.932C128.952 161.351 129.198 162.009 129.198 162.907V168H128.05ZM125.657 166.906C126.241 166.906 126.708 166.744 127.059 166.421C127.414 166.093 127.592 165.635 127.592 165.047V164.391L126.621 164.432C125.865 164.459 125.313 164.587 124.967 164.814C124.625 165.038 124.454 165.382 124.454 165.847C124.454 166.184 124.554 166.446 124.755 166.633C124.955 166.815 125.256 166.906 125.657 166.906ZM141.448 168L140.45 165.225H136.629L135.651 168H133.929L137.668 157.965H139.445L143.185 168H141.448ZM140.02 163.816L139.083 161.096C139.015 160.913 138.919 160.626 138.796 160.234C138.677 159.842 138.595 159.555 138.55 159.373C138.427 159.934 138.247 160.547 138.01 161.212L137.107 163.816H140.02ZM150.984 168H149.371V163.352C149.371 162.768 149.253 162.333 149.016 162.046C148.783 161.759 148.412 161.615 147.901 161.615C147.222 161.615 146.726 161.816 146.411 162.217C146.097 162.618 145.939 163.29 145.939 164.233V168H144.333V160.439H145.591L145.816 161.431H145.898C146.126 161.071 146.45 160.793 146.869 160.597C147.288 160.401 147.753 160.303 148.264 160.303C150.077 160.303 150.984 161.226 150.984 163.071V168ZM157.95 168L157.629 166.947H157.574C157.21 167.408 156.843 167.722 156.474 167.891C156.104 168.055 155.631 168.137 155.052 168.137C154.309 168.137 153.728 167.936 153.309 167.535C152.894 167.134 152.687 166.567 152.687 165.833C152.687 165.054 152.976 164.466 153.555 164.069C154.133 163.673 155.015 163.456 156.2 163.42L157.506 163.379V162.976C157.506 162.493 157.392 162.132 157.164 161.896C156.941 161.654 156.592 161.533 156.118 161.533C155.731 161.533 155.359 161.59 155.004 161.704C154.648 161.818 154.307 161.952 153.979 162.107L153.459 160.959C153.869 160.745 154.318 160.583 154.806 160.474C155.293 160.36 155.754 160.303 156.187 160.303C157.148 160.303 157.873 160.512 158.36 160.932C158.853 161.351 159.099 162.009 159.099 162.907V168H157.95ZM155.558 166.906C156.141 166.906 156.608 166.744 156.959 166.421C157.314 166.093 157.492 165.635 157.492 165.047V164.391L156.521 164.432C155.765 164.459 155.214 164.587 154.867 164.814C154.525 165.038 154.354 165.382 154.354 165.847C154.354 166.184 154.455 166.446 154.655 166.633C154.856 166.815 155.157 166.906 155.558 166.906ZM162.947 168H161.341V157.363H162.947V168ZM164.103 160.439H165.853L167.391 164.726C167.623 165.336 167.778 165.91 167.855 166.448H167.91C167.951 166.198 168.026 165.895 168.136 165.539C168.245 165.179 168.824 163.479 169.872 160.439H171.608L168.375 169.005C167.787 170.577 166.807 171.363 165.436 171.363C165.08 171.363 164.734 171.325 164.396 171.247V169.976C164.638 170.03 164.914 170.058 165.224 170.058C165.998 170.058 166.543 169.609 166.857 168.711L167.138 168L164.103 160.439ZM177.836 165.847C177.836 166.585 177.567 167.152 177.029 167.549C176.492 167.941 175.721 168.137 174.719 168.137C173.712 168.137 172.903 167.984 172.292 167.679V166.291C173.181 166.701 174.008 166.906 174.773 166.906C175.762 166.906 176.257 166.608 176.257 166.011C176.257 165.819 176.202 165.66 176.093 165.532C175.983 165.405 175.803 165.272 175.553 165.136C175.302 164.999 174.953 164.844 174.507 164.671C173.636 164.334 173.046 163.996 172.736 163.659C172.431 163.322 172.278 162.884 172.278 162.347C172.278 161.7 172.538 161.198 173.058 160.843C173.582 160.483 174.293 160.303 175.19 160.303C176.079 160.303 176.92 160.483 177.713 160.843L177.193 162.053C176.378 161.715 175.692 161.547 175.136 161.547C174.288 161.547 173.864 161.788 173.864 162.271C173.864 162.508 173.974 162.709 174.192 162.873C174.416 163.037 174.899 163.263 175.642 163.55C176.266 163.791 176.719 164.012 177.002 164.213C177.285 164.413 177.494 164.646 177.631 164.91C177.768 165.17 177.836 165.482 177.836 165.847ZM182.396 166.838C182.787 166.838 183.179 166.776 183.571 166.653V167.863C183.394 167.941 183.163 168.005 182.881 168.055C182.603 168.109 182.313 168.137 182.013 168.137C180.491 168.137 179.729 167.335 179.729 165.73V161.656H178.697V160.945L179.805 160.357L180.352 158.758H181.343V160.439H183.496V161.656H181.343V165.703C181.343 166.09 181.438 166.378 181.63 166.564C181.826 166.747 182.081 166.838 182.396 166.838Z" fill="#636E95"/>
<path d="M103.696 6.31146C102.906 6.06031 102.063 6.49667 101.811 7.28611C101.56 8.07555 101.997 8.91911 102.786 9.17027L103.696 6.31146ZM145.521 52.061C146.245 52.4636 147.158 52.203 147.561 51.479L154.122 39.6804C154.524 38.9563 154.264 38.043 153.54 37.6404C152.816 37.2378 151.902 37.4984 151.5 38.2224L145.668 48.7101L135.18 42.8784C134.456 42.4758 133.543 42.7364 133.14 43.4604C132.738 44.1844 132.998 45.0977 133.722 45.5003L145.521 52.061ZM102.786 9.17027C115.982 13.3684 124.678 17.7723 130.965 24.0865C137.244 30.3922 141.266 38.7491 144.808 51.1616L147.692 50.3385C144.093 37.721 139.891 28.7985 133.091 21.9697C126.299 15.1494 117.061 10.5636 103.696 6.31146L102.786 9.17027Z" fill="white" fill-opacity="0.1"/>
<path d="M156.779 15.9756C158.074 15.9756 159.1 16.3184 159.855 17.0039C160.611 17.6895 160.989 18.624 160.989 19.8076C160.989 21.1787 160.559 22.251 159.697 23.0244C158.842 23.792 157.623 24.1758 156.041 24.1758C154.605 24.1758 153.478 23.9443 152.657 23.4814V21.6094C153.132 21.8789 153.677 22.0869 154.292 22.2334C154.907 22.3799 155.479 22.4531 156.006 22.4531C156.938 22.4531 157.646 22.2451 158.133 21.8291C158.619 21.4131 158.862 20.8037 158.862 20.001C158.862 18.4658 157.884 17.6982 155.927 17.6982C155.651 17.6982 155.312 17.7275 154.907 17.7861C154.503 17.8389 154.148 17.9004 153.844 17.9707L152.921 17.4258L153.413 11.1504H160.093V12.9873H155.232L154.942 16.1689C155.147 16.1338 155.396 16.0928 155.689 16.0459C155.988 15.999 156.352 15.9756 156.779 15.9756ZM171.413 17.5752C171.413 19.8076 171.053 21.4658 170.332 22.5498C169.617 23.6338 168.521 24.1758 167.045 24.1758C165.615 24.1758 164.531 23.6162 163.793 22.4971C163.055 21.3779 162.686 19.7373 162.686 17.5752C162.686 15.3076 163.043 13.6377 163.758 12.5654C164.479 11.4873 165.574 10.9482 167.045 10.9482C168.48 10.9482 169.567 11.5107 170.306 12.6357C171.044 13.7607 171.413 15.4072 171.413 17.5752ZM164.777 17.5752C164.777 19.3271 164.956 20.5781 165.313 21.3281C165.677 22.0781 166.254 22.4531 167.045 22.4531C167.836 22.4531 168.413 22.0723 168.776 21.3105C169.146 20.5488 169.33 19.3037 169.33 17.5752C169.33 15.8525 169.146 14.6074 168.776 13.8398C168.413 13.0664 167.836 12.6797 167.045 12.6797C166.254 12.6797 165.677 13.0576 165.313 13.8135C164.956 14.5693 164.777 15.8232 164.777 17.5752ZM174.647 15C174.647 15.873 174.732 16.5234 174.902 16.9512C175.072 17.3789 175.351 17.5928 175.737 17.5928C176.511 17.5928 176.897 16.7285 176.897 15C176.897 13.2715 176.511 12.4072 175.737 12.4072C175.351 12.4072 175.072 12.6211 174.902 13.0488C174.732 13.4766 174.647 14.127 174.647 15ZM178.603 14.9824C178.603 16.3301 178.359 17.3438 177.873 18.0234C177.393 18.6973 176.681 19.0342 175.737 19.0342C174.847 19.0342 174.155 18.6855 173.663 17.9883C173.177 17.2852 172.934 16.2832 172.934 14.9824C172.934 12.3047 173.868 10.9658 175.737 10.9658C176.657 10.9658 177.363 11.3145 177.855 12.0117C178.354 12.7031 178.603 13.6934 178.603 14.9824ZM183.015 20.1328C183.015 21.0059 183.1 21.6592 183.27 22.0928C183.445 22.5264 183.727 22.7432 184.113 22.7432C184.881 22.7432 185.265 21.873 185.265 20.1328C185.265 18.416 184.881 17.5576 184.113 17.5576C183.727 17.5576 183.445 17.7686 183.27 18.1904C183.1 18.6123 183.015 19.2598 183.015 20.1328ZM186.97 20.1328C186.97 21.4805 186.727 22.4912 186.24 23.165C185.754 23.8389 185.045 24.1758 184.113 24.1758C183.223 24.1758 182.531 23.8301 182.039 23.1387C181.547 22.4414 181.301 21.4395 181.301 20.1328C181.301 17.4551 182.238 16.1162 184.113 16.1162C185.016 16.1162 185.716 16.4619 186.214 17.1533C186.718 17.8447 186.97 18.8379 186.97 20.1328ZM184.359 11.1504L177.231 24H175.526L182.654 11.1504H184.359ZM192.059 18.4365H188.561V16.8721H192.059V13.2861H193.641V16.8721H197.147V18.4365H193.641V22.0049H192.059V18.4365Z" fill="white"/>
<defs>
<filter id="filter0_di_1778_15990" x="82" y="55" width="122" height="105" filterUnits="userSpaceOnUse" color-interpolation-filters="sRGB">
<feFlood flood-opacity="0" result="BackgroundImageFix"/>
<feColorMatrix in="SourceAlpha" type="matrix" values="0 0 0 0 0 0 0 0 0 0 0 0 0 0 0 0 0 0 127 0" result="hardAlpha"/>
<feOffset dy="4"/>
<feGaussianBlur stdDeviation="10"/>
<feComposite in2="hardAlpha" operator="out"/>
<feColorMatrix type="matrix" values="0 0 0 0 0.189444 0 0 0 0 0.195352 0 0 0 0 0.366667 0 0 0 0.5 0"/>
<feBlend mode="normal" in2="BackgroundImageFix" result="effect1_dropShadow_1778_15990"/>
<feBlend mode="normal" in="SourceGraphic" in2="effect1_dropShadow_1778_15990" result="shape"/>
<feColorMatrix in="SourceAlpha" type="matrix" values="0 0 0 0 0 0 0 0 0 0 0 0 0 0 0 0 0 0 127 0" result="hardAlpha"/>
<feOffset dx="2" dy="2"/>
<feGaussianBlur stdDeviation="15"/>
<feComposite in2="hardAlpha" operator="arithmetic" k2="-1" k3="1"/>
<feColorMatrix type="matrix" values="0 0 0 0 0 0 0 0 0 0 0 0 0 0 0 0 0 0 0.1 0"/>
<feBlend mode="normal" in2="shape" result="effect2_innerShadow_1778_15990"/>
</filter>
<filter id="filter1_f_1778_15990" x="119" y="67" width="48" height="73" filterUnits="userSpaceOnUse" color-interpolation-filters="sRGB">
<feFlood flood-opacity="0" result="BackgroundImageFix"/>
<feBlend mode="normal" in="SourceGraphic" in2="BackgroundImageFix" result="shape"/>
<feGaussianBlur stdDeviation="7" result="effect1_foregroundBlur_1778_15990"/>
</filter>
<linearGradient id="paint0_linear_1778_15990" x1="123.525" y1="157.895" x2="162.041" y2="62.165" gradientUnits="userSpaceOnUse">
<stop stop-color="#23EEC9"/>
<stop offset="0.648958" stop-color="#7D3FFF"/>
<stop offset="1" stop-color="#4D54FF"/>
</linearGradient>
</defs>
</svg>
