<svg width="14" height="14" viewBox="0 0 14 14" fill="none" xmlns="http://www.w3.org/2000/svg">
<path d="M5.05583 7.00008C5.05583 5.92624 5.92612 5.05548 6.99996 5.05548C8.0738 5.05548 8.94456 5.92624 8.94456 7.00008C8.94456 8.07392 8.0738 8.94468 6.99996 8.94468C5.92612 8.94468 5.05583 8.07392 5.05583 7.00008ZM4.0046 7.00008C4.0046 8.65443 5.34561 9.99544 6.99996 9.99544C8.65431 9.99544 9.99531 8.65443 9.99531 7.00008C9.99531 5.34573 8.65431 4.00473 6.99996 4.00473C5.34561 4.00473 4.0046 5.34573 4.0046 7.00008ZM9.41387 3.88599C9.41387 4.27236 9.72721 4.58617 10.1141 4.58617C10.5004 4.58617 10.8142 4.27236 10.8142 3.88599C10.8142 3.49961 10.5009 3.18627 10.1141 3.18627C9.72721 3.18627 9.41387 3.49961 9.41387 3.88599ZM4.64307 11.7483C4.07434 11.7223 3.76524 11.6276 3.5598 11.5475C3.28745 11.4415 3.09332 11.3152 2.88883 11.1112C2.6848 10.9072 2.55805 10.7131 2.4525 10.4407C2.3724 10.2353 2.27769 9.92617 2.25178 9.35745C2.22351 8.74254 2.21785 8.55784 2.21785 7.00008C2.21785 5.44233 2.22398 5.25809 2.25178 4.64272C2.27769 4.07399 2.37287 3.76536 2.4525 3.55945C2.55852 3.2871 2.6848 3.09297 2.88883 2.88848C3.09285 2.68445 3.28698 2.5577 3.5598 2.45215C3.76524 2.37205 4.07434 2.27734 4.64307 2.25143C5.25797 2.22316 5.44268 2.2175 6.99996 2.2175C8.55771 2.2175 8.74195 2.22363 9.35732 2.25143C9.92605 2.27734 10.2347 2.37252 10.4406 2.45215C10.7129 2.5577 10.9071 2.68445 11.1116 2.88848C11.3156 3.0925 11.4419 3.2871 11.5479 3.55945C11.628 3.76489 11.7227 4.07399 11.7486 4.64272C11.7769 5.25809 11.7825 5.44233 11.7825 7.00008C11.7825 8.55736 11.7769 8.74207 11.7486 9.35745C11.7227 9.92617 11.6275 10.2353 11.5479 10.4407C11.4419 10.7131 11.3156 10.9072 11.1116 11.1112C10.9075 11.3152 10.7129 11.4415 10.4406 11.5475C10.2352 11.6276 9.92605 11.7223 9.35732 11.7483C8.74242 11.7765 8.55771 11.7822 6.99996 11.7822C5.44268 11.7822 5.25797 11.7765 4.64307 11.7483ZM4.595 1.20209C3.97398 1.23036 3.54991 1.32884 3.17908 1.47302C2.79553 1.62192 2.47041 1.8217 2.14576 2.14588C1.82158 2.47006 1.6218 2.79518 1.4729 3.1792C1.32872 3.55003 1.23024 3.9741 1.20197 4.59513C1.17322 5.2171 1.16663 5.41594 1.16663 7.00008C1.16663 8.58422 1.17322 8.78306 1.20197 9.40504C1.23024 10.0261 1.32872 10.4501 1.4729 10.821C1.6218 11.2045 1.82111 11.5301 2.14576 11.8543C2.46994 12.1785 2.79506 12.3778 3.17908 12.5271C3.55038 12.6713 3.97398 12.7698 4.595 12.7981C5.21745 12.8263 5.41582 12.8334 6.99996 12.8334C8.58457 12.8334 8.78294 12.8268 9.40491 12.7981C10.0259 12.7698 10.45 12.6713 10.8208 12.5271C11.2044 12.3778 11.5295 12.1785 11.8542 11.8543C12.1783 11.5301 12.3777 11.2045 12.527 10.821C12.6712 10.4501 12.7702 10.0261 12.798 9.40504C12.8262 8.78259 12.8328 8.58422 12.8328 7.00008C12.8328 5.41594 12.8262 5.2171 12.798 4.59513C12.7697 3.9741 12.6712 3.55003 12.527 3.1792C12.3777 2.79565 12.1783 2.47053 11.8542 2.14588C11.53 1.8217 11.2044 1.62192 10.8213 1.47302C10.45 1.32884 10.0259 1.22989 9.40539 1.20209C8.78341 1.17382 8.58457 1.16675 7.00043 1.16675C5.41582 1.16675 5.21745 1.17334 4.595 1.20209Z" fill="white"/>
</svg>
