<svg width="1440" height="821" viewBox="0 0 1440 821" fill="none" xmlns="http://www.w3.org/2000/svg">
<path xmlns="http://www.w3.org/2000/svg" d="M0 69.3176C0 58.5421 8.53689 49.7036 19.306 49.3297L1419.31 0.718546C1430.62 0.325805 1440 9.38873 1440 20.7065V821H0V69.3176Z" fill="#F1F2FA"/>
<mask id="mask0_1246_10629" style="mask-type:alpha" maskUnits="userSpaceOnUse" x="0" y="0" width="1440" height="821">
<path d="M0 69.3176C0 58.5421 8.53689 49.7036 19.306 49.3297L1419.31 0.718546C1430.62 0.325805 1440 9.38873 1440 20.7065V821H0V69.3176Z" fill="#F1F2FA"/>
</mask>
<g mask="url(#mask0_1246_10629)">
<g filter="url(#filter0_f_1246_10629)">
<path d="M898.472 -291.679C822.358 -362.709 690.38 -258.944 619.488 -182.978C548.595 -107.011 324.156 -230.24 383.791 -83.2535C411.467 -15.038 454.915 14.1884 521.607 45.3579C680.031 119.4 837.033 50.4492 907.926 -25.5175C978.819 -101.484 974.586 -220.648 898.472 -291.679Z" fill="#90CAFF"/>
</g>
<g filter="url(#filter1_f_1246_10629)">
<path d="M541.943 146.386C452.635 88.9146 305.642 43.9379 182.167 51.7733C-211.024 76.7241 102.985 732.237 439.26 858.662C725.437 966.252 1303.65 1059.05 1345.28 800.345C1371.68 636.287 1314.62 462.641 1127.67 402.235C1016.72 366.383 828.479 392.528 731.684 339.322C655.967 297.701 613.2 192.242 541.943 146.386Z" fill="#DAFBFF"/>
</g>

<g filter="url(#filter2_f_1246_10629)">
<ellipse cx="1297" cy="-124.5" rx="358.5" ry="358" transform="rotate(-90 1297 -124.5)" fill="#F47BFF" fill-opacity="0.5"/>
</g>
<g style="mix-blend-mode:hue" filter="url(#filter3_f_1246_10629)">
<ellipse cx="746.5" cy="484" rx="265" ry="201.5" transform="rotate(-90 746.5 484)" fill="#00FF47"/>
</g>
</g>

<defs>
<filter id="filter0_f_1246_10629" x="23.8223" y="-665.425" width="1284.62" height="1092.49" filterUnits="userSpaceOnUse" color-interpolation-filters="sRGB">
<feFlood flood-opacity="0" result="BackgroundImageFix"/>
<feBlend mode="normal" in="SourceGraphic" in2="BackgroundImageFix" result="shape"/>
<feGaussianBlur stdDeviation="175" result="effect1_foregroundBlur_1246_10629"/>
</filter>
<filter id="filter1_f_1246_10629" x="-250.666" y="-199.116" width="1852.04" height="1416.28" filterUnits="userSpaceOnUse" color-interpolation-filters="sRGB">
<feFlood flood-opacity="0" result="BackgroundImageFix"/>
<feBlend mode="normal" in="SourceGraphic" in2="BackgroundImageFix" result="shape"/>
<feGaussianBlur stdDeviation="125" result="effect1_foregroundBlur_1246_10629"/>
</filter>
<filter id="filter2_f_1246_10629" x="249" y="-1173" width="2096" height="2097" filterUnits="userSpaceOnUse" color-interpolation-filters="sRGB">
<feFlood flood-opacity="0" result="BackgroundImageFix"/>
<feBlend mode="normal" in="SourceGraphic" in2="BackgroundImageFix" result="shape"/>
<feGaussianBlur stdDeviation="345" result="effect1_foregroundBlur_1246_10629"/>
</filter>
<filter id="filter3_f_1246_10629" x="225" y="-101" width="1043" height="1170" filterUnits="userSpaceOnUse" color-interpolation-filters="sRGB">
<feFlood flood-opacity="0" result="BackgroundImageFix"/>
<feBlend mode="normal" in="SourceGraphic" in2="BackgroundImageFix" result="shape"/>
<feGaussianBlur stdDeviation="160" result="effect1_foregroundBlur_1246_10629"/>
</filter>
</defs>
</svg>
