<svg width="14" height="14" viewBox="0 0 14 14" fill="none" xmlns="http://www.w3.org/2000/svg">
<path d="M0.700012 2.0986C0.700012 1.69319 0.841908 1.35873 1.12569 1.09522C1.40947 0.831704 1.77839 0.699951 2.23244 0.699951C2.67839 0.699951 3.0392 0.829673 3.31488 1.08914C3.59866 1.35671 3.74055 1.70535 3.74055 2.13509C3.74055 2.52428 3.60272 2.84859 3.32704 3.10806C3.04326 3.37563 2.67028 3.50941 2.20812 3.50941H2.19596C1.75001 3.50941 1.38921 3.37563 1.11353 3.10806C0.837846 2.84049 0.700012 2.504 0.700012 2.0986ZM0.85812 12.7405V4.61617H3.55812V12.7405H0.85812ZM5.05407 12.7405H7.75407V8.204C7.75407 7.92021 7.7865 7.70129 7.85136 7.54725C7.96487 7.27157 8.13718 7.03846 8.36826 6.84792C8.59934 6.65738 8.8892 6.56211 9.23785 6.56211C10.146 6.56211 10.6 7.17427 10.6 8.3986V12.7405H13.3V8.08238C13.3 6.88238 13.0162 5.97225 12.4487 5.35198C11.8811 4.73171 11.1311 4.42157 10.1987 4.42157C9.15272 4.42157 8.33785 4.87157 7.75407 5.77157V5.7959H7.74191L7.75407 5.77157V4.61617H5.05407C5.07028 4.87562 5.07839 5.68237 5.07839 7.03644C5.07839 8.39049 5.07028 10.2918 5.05407 12.7405Z" fill="white"/>
</svg>
