<svg width="174" height="50" viewBox="0 0 174 50" fill="none" xmlns="http://www.w3.org/2000/svg">
<path d="M81.5481 32.7689V21.2561H81.7511L90.0449 32.7689H92.6549V15.8622H89.7549V27.346H89.5519L81.2581 15.8622H78.6481V32.7689H81.5481ZM100.862 33.0299C104.69 33.0299 107.039 30.5359 107.039 26.36C107.039 22.2131 104.69 19.6901 100.862 19.6901C97.0628 19.6901 94.6849 22.2131 94.6849 26.36C94.7139 30.5359 97.0338 33.0299 100.862 33.0299ZM100.862 30.5939C98.8318 30.5939 97.6718 29.0569 97.6718 26.36C97.6718 23.692 98.8318 22.1261 100.862 22.1261C102.892 22.1261 104.052 23.692 104.052 26.36C104.052 29.0569 102.892 30.5939 100.862 30.5939ZM109.678 16.8192V20.0381H107.648V22.3581H109.678V29.3469C109.678 31.8409 110.838 32.8269 113.796 32.8269C114.347 32.8269 114.898 32.7689 115.333 32.6819V30.4199C114.985 30.4489 114.753 30.4779 114.347 30.4779C113.129 30.4779 112.578 29.9269 112.578 28.651V22.3581H115.333V20.0381H112.578V16.8192H109.678ZM117.072 32.7689H119.972V19.9511H117.072V32.7689ZM118.522 17.8341C119.479 17.8341 120.262 17.0511 120.262 16.0942C120.262 15.1082 119.479 14.3252 118.522 14.3252C117.565 14.3252 116.783 15.1082 116.783 16.0942C116.783 17.0511 117.565 17.8341 118.522 17.8341ZM127.918 33.0299C131.746 33.0299 134.095 30.5359 134.095 26.36C134.095 22.2131 131.746 19.6901 127.918 19.6901C124.119 19.6901 121.741 22.2131 121.741 26.36C121.741 30.5359 124.061 33.0299 127.918 33.0299ZM127.918 30.5939C125.888 30.5939 124.728 29.0569 124.728 26.36C124.728 23.692 125.888 22.1261 127.918 22.1261C129.919 22.1261 131.108 23.692 131.108 26.36C131.079 29.0569 129.919 30.5939 127.918 30.5939ZM135.806 32.7689H138.706V25.316C138.706 23.431 139.808 22.2421 141.519 22.2421C143.288 22.2421 144.1 23.228 144.1 25.171V32.7689H147V24.475C147 21.4011 145.434 19.6901 142.592 19.6901C140.678 19.6901 139.402 20.5601 138.793 22.0101H138.59V19.9511H135.777C135.806 19.9511 135.806 32.7689 135.806 32.7689Z" fill="black"/>
<path fill-rule="evenodd" clip-rule="evenodd" d="M34.2209 10.6423C35.5839 11.7443 36.0769 11.6573 38.6289 11.4833L62.6695 10.0333C63.1915 10.0333 62.7565 9.51131 62.5825 9.45331L58.5805 6.58236C57.8265 6.00237 56.7826 5.30638 54.8396 5.48038L31.582 7.19135C30.741 7.27835 30.567 7.71334 30.915 8.03234L34.2209 10.6423ZM35.6709 16.2392V41.5268C35.6709 42.8897 36.3379 43.3827 37.8749 43.2957L64.2934 41.7588C65.8304 41.6718 66.0044 40.7438 66.0044 39.6418V14.5282C66.0044 13.4262 65.5694 12.8173 64.6414 12.9043L37.0339 14.5282C36.0189 14.6152 35.6709 15.1372 35.6709 16.2392ZM61.7415 17.6022C61.9155 18.3562 61.7415 19.1391 60.9875 19.2261L59.7115 19.4871V38.1628C58.6095 38.7428 57.5946 39.0908 56.7246 39.0908C55.3616 39.0908 55.0136 38.6558 53.9986 37.3798L45.6758 24.3011V36.9448L48.3147 37.5248C48.3147 37.5248 48.3147 39.0618 46.1977 39.0618L40.3398 39.4098C40.1658 39.0618 40.3398 38.2208 40.9198 38.0468L42.4568 37.6118V20.9081L40.3398 20.7341C40.1658 19.9801 40.6008 18.8782 41.7898 18.7912L48.0827 18.3562L56.7536 31.5799V19.8931L54.5496 19.6321C54.3756 18.7042 55.0716 18.0082 55.9126 17.9212L61.7415 17.6022ZM29.639 4.87139L53.8536 3.10242C56.8116 2.84142 57.5946 3.01542 59.4505 4.3784L67.1644 9.80131C68.4404 10.7293 68.8754 10.9903 68.8754 12.0053V41.7878C68.8754 43.6437 68.2084 44.7457 65.8304 44.9197L37.7299 46.6307C35.9319 46.7177 35.0909 46.4567 34.1629 45.2677L28.45 37.8728C27.4351 36.5099 27.0001 35.4949 27.0001 34.3059V7.82934C27.0001 6.29236 27.696 5.04539 29.639 4.87139Z" fill="black"/>
</svg>
