<svg width="173" height="50" viewBox="0 0 173 50" fill="none" xmlns="http://www.w3.org/2000/svg">
<path d="M130.011 17.1382C131.294 17.1382 132.335 16.1419 132.335 14.913C132.335 13.6841 131.294 12.6879 130.011 12.6879C128.728 12.6879 127.688 13.6841 127.688 14.913C127.688 16.1419 128.728 17.1382 130.011 17.1382Z" fill="black"/>
<path d="M79.7763 35.1721C74.6629 35.1721 70.9521 31.7388 70.9521 27.012C70.9521 22.2852 74.6629 18.8787 79.7763 18.8787C82.2676 18.8787 84.5249 19.6886 86.1348 21.1574C87.7448 22.6262 88.6349 24.7113 88.6349 27.012C88.6349 29.3126 87.7448 31.3964 86.1348 32.8812C84.5249 34.3657 82.2663 35.1721 79.7763 35.1721ZM79.7763 22.4265C77.1186 22.4265 75.2633 24.3118 75.2633 27.0095C75.2633 29.7072 77.1186 31.5925 79.7763 31.5925C82.494 31.5925 84.3189 29.751 84.3189 27.0095C84.3189 24.268 82.494 22.4228 79.7763 22.4228V22.4265Z" fill="black"/>
<path d="M94.8088 13.0388H90.5282V34.9688H94.8088V13.0388Z" fill="black"/>
<path d="M101.255 13.0388H96.9742V34.9688H101.255V13.0388Z" fill="black"/>
<path d="M111.979 35.1721C106.866 35.1721 103.155 31.7388 103.155 27.012C103.155 22.2852 106.866 18.8787 111.979 18.8787C114.47 18.8787 116.727 19.6886 118.337 21.1574C119.947 22.6262 120.838 24.7113 120.838 27.012C120.838 29.3126 119.947 31.3964 118.337 32.8812C116.727 34.3657 114.466 35.1721 111.979 35.1721ZM111.979 22.4265C109.321 22.4265 107.465 24.3118 107.465 27.0095C107.465 29.7072 109.321 31.5925 111.979 31.5925C114.697 31.5925 116.522 29.751 116.522 27.0095C116.522 24.268 114.697 22.4228 111.979 22.4228V22.4265Z" fill="black"/>
<path d="M132.151 18.8762H127.871V34.9686H132.151V18.8762Z" fill="black"/>
<path d="M143.141 35.1721C138.029 35.1721 134.318 31.7388 134.318 27.012C134.318 22.2852 138.029 18.8787 143.141 18.8787C145.634 18.8787 147.89 19.6886 149.5 21.1574C151.11 22.6262 152 24.7113 152 27.012C152 29.3126 151.11 31.3964 149.5 32.8812C147.89 34.3657 145.631 35.1721 143.141 35.1721ZM143.141 22.4265C140.485 22.4265 138.628 24.3118 138.628 27.0095C138.628 29.7072 140.485 31.5925 143.141 31.5925C145.859 31.5925 147.685 29.751 147.685 27.0095C147.685 24.268 145.859 22.4228 143.141 22.4228V22.4265Z" fill="black"/>
<path d="M51.8044 40.6917V18.7605H56.0851V19.926C57.4853 19.2219 59.0459 18.8612 60.6274 18.8762C63.1199 18.8762 65.3759 19.6861 66.9859 21.1549C68.5958 22.6237 69.486 24.7088 69.486 27.0095C69.486 29.3101 68.5958 31.3941 66.9859 32.8786C65.3759 34.3633 63.1213 35.1721 60.6274 35.1721C59.0451 35.1867 57.4838 34.8235 56.0851 34.1149V40.6917H51.8044ZM60.6274 22.4228C57.9709 22.4228 56.1142 24.3081 56.1142 27.0058C56.1142 29.7035 57.9709 31.589 60.6274 31.589C63.3449 31.589 65.1712 29.7475 65.1712 27.0058C65.1712 24.2643 63.3449 22.4228 60.6274 22.4228Z" fill="black"/>
<path d="M123.78 34.9675C123.416 34.9677 123.06 34.8645 122.757 34.6707C122.454 34.477 122.218 34.2017 122.078 33.8794C121.939 33.557 121.902 33.2024 121.973 32.8601C122.044 32.518 122.219 32.2037 122.477 31.9569C122.735 31.7102 123.063 31.5421 123.42 31.4743C123.777 31.4063 124.148 31.4412 124.484 31.5748C124.821 31.7085 125.108 31.9347 125.311 32.225C125.513 32.5151 125.621 32.8562 125.621 33.2051C125.62 33.6724 125.426 34.1202 125.081 34.4506C124.736 34.781 124.268 34.9669 123.78 34.9675Z" fill="black"/>
<path d="M46.12 14.8229H42.0798L44.1743 18.2964L46.12 14.8229Z" fill="#FFC127"/>
<path d="M48.3988 28.7682L45.6686 24.2327L37.0529 10L22 34.9674H30.0625C31.1395 34.9661 32.1976 34.6959 33.1322 34.1833C34.0669 33.6706 34.8458 32.9334 35.3921 32.0445L39.5136 25.1595L37.2245 21.3632L32.2497 29.6574C31.9676 30.1175 31.565 30.4991 31.0817 30.7646C30.5984 31.0301 30.0512 31.1703 29.494 31.1712H28.8823L37.0554 17.6132L47.5201 34.9674H50.4868V32.204L48.4078 28.7682H48.3988Z" fill="black"/>
</svg>
