<svg width="84" height="25" viewBox="0 0 84 25" fill="none" xmlns="http://www.w3.org/2000/svg">
<g clip-path="url(#clip0_1718_5157)">
<path d="M0.0160522 0.432861H2.5481L6.87503 10.5931H4.32695L0.0160522 0.432861Z" fill="white"/>
<path d="M16.6026 10.4488L18.9423 10.593L23.3654 0.192383H20.7853L16.6026 10.4488Z" fill="white"/>
<path d="M27.8045 0.0161133H30.2404L30.3526 7.66034L27.8045 13.1411V0.0161133Z" fill="white"/>
<path d="M70.3205 0.192383H72.5641L62.4519 24.968H59.8237L70.3205 0.192383Z" fill="white"/>
<path d="M72.7564 5.78526L73.7821 3.34937L83.2212 24.968H80.8173L76.843 15.2564H68.5096L69.3109 13.093L75.7853 13.0449L72.7564 5.78526Z" fill="white"/>
<path d="M27.8045 18.125L30.1603 12.8525V24.9679H27.8045V18.125Z" fill="white"/>
<path d="M5.68915 12.8525H7.94877L11.827 22.0192L15.609 12.8525H18.0129L12.8686 24.9679H10.625L5.54492 12.8525" fill="white"/>
<path d="M36.4904 0.432861H39.0064L43.3334 10.5931H40.7853L36.4904 0.432861Z" fill="white"/>
<path d="M53.0609 10.4488L55.4167 10.593L59.8237 0.192383H57.2596L53.0609 10.4488Z" fill="white"/>
<path d="M42.1475 12.8525H44.4071L48.2853 22.0192L52.0834 12.8525H54.4872L49.327 24.9679H47.0994L42.0032 12.8525" fill="white"/>
</g>
<defs>
<clipPath id="clip0_1718_5157">
<rect width="83.3333" height="25" fill="white"/>
</clipPath>
</defs>
</svg>
