<svg width="174" height="50" viewBox="0 0 174 50" fill="none" xmlns="http://www.w3.org/2000/svg">
<path d="M61.2985 19.1215C62.334 15.9287 61.7111 9.55898 59.705 7.20739C59.4421 6.89892 58.9527 6.94299 58.7343 7.28351L56.263 11.1254C55.6523 11.8945 54.5522 12.0708 53.723 11.534C51.0414 9.79533 47.8381 8.7858 44.3961 8.7858C40.9541 8.7858 37.7508 9.79533 35.0692 11.534C34.2441 12.0708 33.1439 11.8905 32.5292 11.1254L30.0579 7.28351C29.8395 6.94299 29.3501 6.90293 29.0872 7.20739C27.081 9.56298 26.4582 15.9327 27.4936 19.1215C27.8374 20.1832 27.9304 21.3049 27.7282 22.3946C27.526 23.4761 27.3237 24.7822 27.3237 25.6915C27.3237 35.0298 34.9681 42.5974 44.392 42.5974C53.82 42.5974 61.4603 35.0258 61.4603 25.6915C61.4603 24.7822 61.2581 23.4761 61.0558 22.3946C60.8577 21.3049 60.9548 20.1832 61.2985 19.1215ZM44.392 38.8236C37.1036 38.8236 31.1782 32.9506 31.1782 25.7316C31.1782 25.4953 31.1863 25.2629 31.1985 25.0305C31.4614 20.111 34.4787 15.9087 38.7457 13.9056C40.4566 13.0964 42.3738 12.6477 44.3961 12.6477C46.4184 12.6477 48.3316 13.0964 50.0464 13.9096C54.3135 15.9127 57.3308 20.1191 57.5936 25.0345C57.6058 25.2669 57.6139 25.5033 57.6139 25.7356C57.6099 32.9506 51.6804 38.8236 44.392 38.8236Z" fill="#1EB4D4"/>
<path d="M50.1191 30.7712L46.7418 24.9704L43.8459 20.135C43.7772 20.0188 43.6518 19.9507 43.5183 19.9507H40.7517C40.6142 19.9507 40.4889 20.0228 40.4201 20.143C40.3514 20.2592 40.3554 20.4034 40.4242 20.5195L43.1947 25.1305L39.4777 30.7471C39.4009 30.8633 39.3968 31.0116 39.4615 31.1317C39.5262 31.2519 39.6557 31.328 39.7973 31.328H42.584C42.7134 31.328 42.8347 31.2639 42.9035 31.1558L44.9137 28.047L46.7175 31.1437C46.7863 31.2599 46.9118 31.332 47.0453 31.332H49.7915C49.929 31.332 50.0544 31.2599 50.1191 31.1437C50.1879 31.0316 50.1879 30.8873 50.1191 30.7712Z" fill="#1EB4D4"/>
<path d="M77.202 16.0126H80.7248V35.1457H77.202V26.9932H73.2222V35.1497H69.6992V16.0126H73.2222V24.3212H77.202V16.0126Z" fill="#1B2738"/>
<path d="M91.5925 35.1496L90.8565 31.1756H86.6298L85.9543 35.1496H82.4315L86.3183 16.0165H91.0627L95.1356 35.1496H91.5925ZM87.091 28.5356H90.3671L88.6845 19.3776L87.091 28.5356Z" fill="#1B2738"/>
<path d="M102.983 31.6603V27.566C102.983 27.2415 102.922 27.0253 102.801 26.9131C102.679 26.8009 102.453 26.7448 102.125 26.7448H99.646C97.5427 26.7448 96.4911 25.7352 96.4911 23.7122V19.0171C96.4911 17.014 97.5913 16.0165 99.7956 16.0165H103.165C105.369 16.0165 106.469 17.018 106.469 19.0171V21.6851H102.918V19.5018C102.918 19.1773 102.857 18.961 102.736 18.8488C102.615 18.7366 102.388 18.6805 102.061 18.6805H100.896C100.548 18.6805 100.313 18.7366 100.192 18.8488C100.071 18.961 100.01 19.1773 100.01 19.5018V23.3516C100.01 23.6761 100.071 23.8925 100.192 24.0047C100.313 24.1168 100.548 24.1729 100.896 24.1729H103.314C105.458 24.1729 106.53 25.1624 106.53 27.1454V32.149C106.53 34.1522 105.418 35.1496 103.193 35.1496H99.8845C97.6601 35.1496 96.5477 34.1482 96.5477 32.149V29.509H100.067V31.6603C100.067 31.9848 100.127 32.2011 100.249 32.3133C100.37 32.4255 100.605 32.4815 100.952 32.4815H102.117C102.445 32.4815 102.667 32.4255 102.793 32.3133C102.918 32.2011 102.983 31.9848 102.983 31.6603Z" fill="#1B2738"/>
<path d="M115.929 16.0126H119.448V32.1452C119.448 34.1482 118.335 35.1457 116.111 35.1457H112.378C110.153 35.1457 109.041 34.1442 109.041 32.1452V16.0126H112.564V31.6605C112.564 31.985 112.624 32.2012 112.746 32.3134C112.867 32.4256 113.094 32.4817 113.421 32.4817H115.043C115.391 32.4817 115.626 32.4256 115.747 32.3134C115.868 32.2012 115.929 31.985 115.929 31.6605V16.0126Z" fill="#1B2738"/>
<path d="M125.879 27.6903V35.1497H122.36V16.0126H129.462C131.687 16.0126 132.799 17.0141 132.799 19.0131V24.6857C132.799 26.3443 132.055 27.3138 130.563 27.5982L133.778 35.1497H129.98L127.04 27.6903H125.879ZM125.879 18.6806V25.1105H128.419C128.747 25.1105 128.969 25.0543 129.094 24.9422C129.216 24.83 129.276 24.6137 129.276 24.2891V19.5019C129.276 19.1774 129.216 18.9611 129.094 18.8489C128.973 18.7367 128.747 18.6806 128.419 18.6806H125.879Z" fill="#1B2738"/>
<path d="M143.453 35.1496L142.717 31.1756H138.49L137.815 35.1496H134.296L138.183 16.0165H142.927L147 35.1496H143.453ZM138.955 28.5356H142.231L140.549 19.3776L138.955 28.5356Z" fill="#1B2738"/>
</svg>
