<svg width="173" height="50" viewBox="0 0 173 50" fill="none" xmlns="http://www.w3.org/2000/svg">
<path d="M28.5387 28.6789L42.7605 14.3731L56.992 28.6789C59.7949 22.786 58.7685 15.5239 53.9128 10.6429C47.7543 4.45236 37.7764 4.45236 31.6179 10.6429C26.7622 15.5239 25.7358 22.786 28.5387 28.6789Z" fill="#0058FF"/>
<path d="M42.7602 14.3738L28.5385 28.6795C29.2885 30.257 30.3149 31.745 31.6177 33.0546L34.4008 35.8622L42.7602 27.4592L51.1195 35.8622L53.9026 33.0646C55.2055 31.755 56.2318 30.2768 56.9819 28.6894L42.7602 14.3738Z" fill="#08B2FA"/>
<path d="M42.7579 27.4514L34.3975 35.8554L42.7579 44.2593L51.1182 35.8554L42.7579 27.4514Z" fill="#86EAFA"/>
<path d="M82.9485 18.5997V31.4174C82.9485 32.6872 82.7906 33.8381 82.4846 34.8599C82.1688 35.8818 81.6951 36.7548 81.0437 37.469C80.3923 38.1834 79.5731 38.7389 78.5764 39.1258C77.5894 39.5127 76.4051 39.7112 75.0431 39.7112C73.7403 39.7112 72.5067 39.5425 71.3421 39.2151C70.1776 38.8778 69.0919 38.2727 68.1049 37.3997L70.2071 34.5226C70.9079 35.1674 71.6382 35.6635 72.3981 36.0207C73.1581 36.3679 74.0364 36.5464 75.0234 36.5464C75.8623 36.5464 76.563 36.4274 77.1354 36.1992C77.7078 35.9611 78.1618 35.6437 78.5073 35.227C78.8428 34.8202 79.0895 34.3241 79.2375 33.7488C79.3856 33.1733 79.4547 32.5285 79.4547 31.8242V30.8023H79.3955C78.8921 31.4868 78.221 32.0027 77.3822 32.34C76.5433 32.6773 75.6945 32.8559 74.8161 32.8559C73.77 32.8559 72.8127 32.6674 71.954 32.2805C71.0954 31.9035 70.3651 31.3876 69.7532 30.7428C69.1412 30.0979 68.6675 29.334 68.3418 28.4511C68.0062 27.5681 67.8484 26.6356 67.8484 25.6336C67.8484 24.6018 68.0062 23.6296 68.3123 22.7268C68.6182 21.824 69.0821 21.0502 69.684 20.3855C70.2861 19.7208 71.0164 19.195 71.8553 18.818C72.7041 18.441 73.6713 18.2426 74.7569 18.2426C75.7537 18.2426 76.6716 18.441 77.5302 18.8279C78.3889 19.2148 79.0698 19.8398 79.5731 20.703H79.6324V18.5997H82.9485ZM75.4774 21.4173C74.8556 21.4173 74.2931 21.5164 73.7897 21.7248C73.2864 21.9332 72.8522 22.2109 72.4869 22.578C72.1317 22.9352 71.8455 23.3816 71.6382 23.8974C71.4309 24.4133 71.3323 24.9887 71.3323 25.6138C71.3323 26.1792 71.4309 26.705 71.6382 27.201C71.8455 27.6872 72.1317 28.1237 72.4968 28.4907C72.862 28.8578 73.3061 29.1555 73.8095 29.3737C74.3128 29.592 74.8556 29.7011 75.4478 29.7011C76.0892 29.7011 76.6716 29.592 77.1847 29.3737C77.698 29.1555 78.142 28.8677 78.4974 28.5106C78.8527 28.1535 79.1389 27.7169 79.3264 27.201C79.5238 26.6951 79.6225 26.1495 79.6225 25.5542C79.6225 24.324 79.2573 23.3221 78.5171 22.5681C77.7769 21.7943 76.7604 21.4173 75.4774 21.4173Z" fill="#082344"/>
<path d="M85.6035 25.6336C85.6035 24.5224 85.8008 23.5105 86.2055 22.5978C86.6003 21.6851 87.1431 20.9113 87.8241 20.2664C88.5051 19.6216 89.3144 19.1255 90.2421 18.7684C91.1797 18.4212 92.1666 18.2426 93.2127 18.2426C94.2589 18.2426 95.2557 18.4212 96.1933 18.7684C97.1309 19.1156 97.9303 19.6216 98.6113 20.2664C99.2923 20.9113 99.8351 21.6851 100.23 22.5978C100.625 23.5105 100.832 24.5224 100.832 25.6336C100.832 26.7447 100.634 27.7567 100.23 28.6694C99.8351 29.582 99.2923 30.3559 98.6113 31.0007C97.9303 31.6455 97.121 32.1416 96.1933 32.4988C95.2557 32.846 94.2688 33.0245 93.2127 33.0245C92.1666 33.0245 91.1698 32.846 90.2421 32.4988C89.3045 32.1515 88.5051 31.6455 87.8241 31.0007C87.1431 30.3559 86.6003 29.582 86.2055 28.6694C85.8008 27.7666 85.6035 26.7547 85.6035 25.6336ZM89.1071 25.6336C89.1071 26.1792 89.1959 26.705 89.3834 27.2209C89.5709 27.7268 89.8375 28.1832 90.2026 28.5701C90.5579 28.957 90.9922 29.2745 91.5054 29.5126C92.0185 29.7507 92.5811 29.8598 93.2227 29.8598C93.8641 29.8598 94.4365 29.7408 94.9399 29.5126C95.4432 29.2745 95.8775 28.9669 96.2427 28.5701C96.5979 28.1832 96.8743 27.7268 97.0618 27.2209C97.2493 26.7149 97.3382 26.1891 97.3382 25.6336C97.3382 25.088 97.2493 24.5621 97.0618 24.0462C96.8743 23.5403 96.6078 23.084 96.2427 22.6971C95.8873 22.3102 95.4531 21.9926 94.9399 21.7545C94.4365 21.5164 93.8641 21.4073 93.2227 21.4073C92.5811 21.4073 92.0087 21.5263 91.5054 21.7545C91.002 21.9926 90.5678 22.3002 90.2026 22.6971C89.8473 23.084 89.5709 23.5403 89.3834 24.0462C89.1959 24.5621 89.1071 25.088 89.1071 25.6336Z" fill="#082344"/>
<path d="M110.958 22.4989C110.277 21.5366 109.359 21.0604 108.214 21.0604C107.75 21.0604 107.287 21.1794 106.842 21.4076C106.398 21.6456 106.171 22.0226 106.171 22.5485C106.171 22.9751 106.359 23.2925 106.724 23.4909C107.089 23.6894 107.563 23.8481 108.125 23.987C108.688 24.1259 109.3 24.2648 109.951 24.4136C110.603 24.5624 111.215 24.7806 111.777 25.0882C112.34 25.3957 112.804 25.8025 113.179 26.3383C113.544 26.864 113.731 27.5882 113.731 28.5109C113.731 29.3541 113.554 30.0585 113.188 30.6339C112.833 31.2093 112.359 31.6756 111.787 32.0228C111.215 32.37 110.563 32.628 109.843 32.7867C109.122 32.9455 108.402 33.0248 107.681 33.0248C106.596 33.0248 105.589 32.8661 104.681 32.5586C103.763 32.2411 102.954 31.6756 102.233 30.8621L104.563 28.6597C105.007 29.1657 105.49 29.5823 106.003 29.9097C106.517 30.2271 107.148 30.3959 107.889 30.3959C108.145 30.3959 108.402 30.366 108.678 30.3065C108.954 30.247 109.201 30.1478 109.438 30.0089C109.675 29.87 109.862 29.7014 110.01 29.493C110.159 29.2847 110.228 29.0466 110.228 28.7787C110.228 28.2926 110.04 27.9255 109.675 27.6973C109.31 27.4592 108.836 27.2708 108.273 27.122C107.711 26.9732 107.099 26.8342 106.448 26.7152C105.796 26.5862 105.184 26.3878 104.622 26.1002C104.059 25.8124 103.595 25.4255 103.22 24.9096C102.855 24.4036 102.668 23.6993 102.668 22.7965C102.668 22.0127 102.826 21.3381 103.151 20.7627C103.477 20.1873 103.891 19.7111 104.424 19.344C104.947 18.977 105.55 18.6992 106.231 18.5207C106.911 18.342 107.602 18.2528 108.303 18.2528C109.241 18.2528 110.159 18.4115 111.076 18.7389C111.994 19.0564 112.725 19.6119 113.297 20.3957L110.958 22.4989Z" fill="#082344"/>
<path d="M115.389 13.8181C115.389 13.2526 115.596 12.7566 116.02 12.3399C116.435 11.9232 116.967 11.705 117.609 11.705C118.251 11.705 118.794 11.9034 119.228 12.3101C119.662 12.707 119.889 13.2129 119.889 13.8181C119.889 14.4233 119.672 14.9292 119.228 15.326C118.794 15.7228 118.251 15.9312 117.609 15.9312C116.967 15.9312 116.435 15.7228 116.02 15.2963C115.596 14.8796 115.389 14.3836 115.389 13.8181ZM115.882 18.5999H119.386V32.6775H115.882V18.5999Z" fill="#082344"/>
<path d="M121.163 21.5856V18.5994H124.054V14.522H127.558V18.5994H131.407V21.5856H127.558V27.7464C127.558 28.4507 127.686 29.0063 127.953 29.4131C128.219 29.8198 128.732 30.0282 129.512 30.0282C129.828 30.0282 130.164 29.9984 130.529 29.929C130.894 29.8595 131.19 29.7503 131.407 29.5916V32.558C131.042 32.7365 130.588 32.8556 130.055 32.9251C129.522 32.9945 129.048 33.0242 128.644 33.0242C127.706 33.0242 126.946 32.9251 126.354 32.7167C125.762 32.5083 125.298 32.2008 124.953 31.7742C124.617 31.3575 124.381 30.8317 124.252 30.2067C124.123 29.5817 124.064 28.8575 124.064 28.0341V21.5856H121.163Z" fill="#082344"/>
<path d="M136.331 26.8638C136.45 27.9154 136.855 28.7388 137.556 29.3241C138.256 29.9095 139.104 30.2071 140.091 30.2071C140.97 30.2071 141.7 30.0285 142.293 29.6614C142.885 29.3043 143.407 28.8479 143.852 28.3023L146.359 30.2071C145.54 31.219 144.632 31.9432 143.615 32.3797C142.608 32.8063 141.542 33.0245 140.437 33.0245C139.391 33.0245 138.394 32.846 137.456 32.4988C136.519 32.1416 135.72 31.6455 135.039 31.0007C134.358 30.3559 133.814 29.582 133.42 28.6694C133.026 27.7567 132.818 26.7447 132.818 25.6336C132.818 24.5224 133.015 23.5105 133.42 22.5978C133.814 21.6851 134.358 20.9113 135.039 20.2664C135.72 19.6216 136.529 19.1255 137.456 18.7684C138.394 18.4212 139.381 18.2426 140.437 18.2426C141.405 18.2426 142.302 18.4113 143.102 18.7585C143.911 19.0958 144.602 19.5918 145.175 20.2367C145.747 20.8815 146.191 21.6752 146.516 22.6276C146.843 23.58 147 24.6613 147 25.9014V26.8737H136.331V26.8638ZM143.507 24.2249C143.487 23.1931 143.161 22.3696 142.54 21.7744C141.918 21.1792 141.049 20.8815 139.944 20.8815C138.897 20.8815 138.058 21.1891 137.447 21.7943C136.835 22.3994 136.46 23.2129 136.322 24.2249H143.507Z" fill="#082344"/>
</svg>
