<svg width="173" height="50" viewBox="0 0 173 50" fill="none" xmlns="http://www.w3.org/2000/svg">
<path d="M154.818 30.582H157V21.0562H154.818V30.582ZM144.662 26.802L146.167 23.1729L147.671 26.802H144.662ZM149.252 30.582H151.583L147.371 21.0562H145.189L140.976 30.582H143.233L144.061 28.5412H148.424L149.252 30.582ZM132.701 21.0562V26.877L127.962 21.0562H126.157V30.582H128.338V24.8361L133.077 30.582H134.883V21.0562H132.701ZM119.686 30.582H121.868V21.0562H119.686V30.582ZM114.12 21.0562L111.938 27.784L109.756 21.0562H107.725L105.469 27.784L103.363 21.0562H101.106L104.19 30.582H106.521L108.703 24.1558L110.81 30.582H113.142L116.227 21.0562H114.12ZM96.1409 24.4585C96.1409 24.988 95.99 25.3656 95.6144 25.6682C95.2388 25.9709 94.7872 26.1218 94.1099 26.1218H92.3037V22.7953H94.1089C94.7862 22.7953 95.2378 22.9461 95.6134 23.2488C95.99 23.5515 96.1409 23.9291 96.1409 24.4585ZM98.5475 30.582L96.4406 27.5582C97.043 27.2555 97.5694 26.8779 97.8701 26.3485C98.2458 25.8191 98.3966 25.2147 98.3966 24.5344C98.3966 23.8542 98.2458 23.2488 97.8701 22.7204C97.4935 22.1909 97.043 21.8133 96.4406 21.5107C95.8392 21.208 95.0869 21.0571 94.2588 21.0571H90.1209V30.583H92.3027V27.9368H94.1838H94.2588L96.064 30.583H98.5475V30.582ZM80.042 26.802L81.5465 23.1729L83.051 26.802H80.042ZM84.5555 30.582H86.8871L82.6743 21.0562H80.4925L76.2797 30.582H78.5365L79.3637 28.5412H83.8022L84.5555 30.582ZM66.8771 28.7679V22.8712H68.9081C69.8861 22.8712 70.6384 23.1739 71.1648 23.7033C71.6913 24.2327 71.992 24.9889 71.992 25.896C71.992 26.803 71.6913 27.5592 71.1648 28.0886C70.5634 28.6181 69.8112 28.9207 68.9081 28.9207H66.8771V28.7679ZM64.6953 30.582H68.983C70.036 30.582 70.9391 30.3552 71.6913 29.9767C72.5185 29.5991 73.1209 28.9937 73.4965 28.3134C73.9481 27.6331 74.1738 26.7261 74.1738 25.8191C74.1738 24.912 73.9481 24.005 73.4965 23.3247C73.045 22.6445 72.4436 22.0391 71.6913 21.6615C70.9391 21.2839 69.9611 21.0571 68.983 21.0571H64.6953V30.582Z" fill="#202024"/>
<path d="M32.7982 42.5264C29.94 42.2997 27.7582 40.7124 26.9301 38.5197C27.6074 38.6705 28.2847 38.6705 28.961 38.6705C30.992 38.6705 33.023 38.1411 34.7533 37.1582V42.4495C34.1518 42.5264 33.4745 42.5264 32.7982 42.5264ZM19.031 26.5754C19.031 23.173 20.7612 20.1493 23.3946 18.3352C24.5235 22.6446 28.4346 25.7443 33.024 25.7443C33.6254 25.7443 34.2278 25.6684 34.8292 25.5934V28.6931C34.1518 28.5423 33.4755 28.4664 32.7982 28.4664C30.6164 28.4664 28.5854 29.2985 27.006 30.8099C25.6523 32.0955 24.9001 33.7578 24.6743 35.5728C21.2877 33.9076 19.031 30.5062 19.031 26.5754ZM32.9481 8.20497C33.4745 8.12906 34.0769 8.12906 34.6034 8.12906C34.6783 8.12906 34.6783 8.12906 34.7542 8.12906V15.9917C33.024 15.0087 30.992 14.4793 28.961 14.4793C27.6074 14.4793 26.3277 14.7061 25.049 15.1596C25.3506 11.3037 28.3596 8.58258 32.9481 8.20497ZM34.7533 30.8838V34.7397C33.0979 35.9494 31.0669 36.6297 28.961 36.6297C28.1339 36.6297 27.3057 36.5538 26.5535 36.327C26.7043 33.0765 29.3367 30.5812 32.7223 30.5812C33.4745 30.5062 34.1518 30.6571 34.7533 30.8838ZM34.7533 23.4757C34.1518 23.6266 33.5495 23.7025 32.9481 23.7025C29.1109 23.7025 25.952 20.9814 25.1998 17.3522C26.3287 16.8987 27.6074 16.596 28.961 16.596C31.0669 16.596 33.023 17.2763 34.7533 18.486V23.4757ZM36.8601 30.2036C36.8601 30.2036 36.8601 30.1276 36.8601 30.2036V24.3068V7.14611C36.8601 6.61668 36.4845 6.16316 35.957 6.08724C34.979 5.9364 33.8511 6.01133 32.8731 6.08724C26.9301 6.61668 23.018 10.4716 23.018 15.688C23.018 15.8389 23.018 15.9907 23.018 16.1415C19.4076 18.1834 17 22.1142 17 26.5754C17 31.7159 20.1598 36.1013 24.6733 37.8394C24.974 39.5026 25.7263 41.015 27.005 42.1488C28.4346 43.5094 30.4655 44.3415 32.6474 44.5682C32.9481 44.5682 33.2497 44.5682 33.5504 44.5682C34.5285 44.5682 35.3556 44.4174 36.1838 44.1906C36.6354 44.0398 36.8611 43.6612 36.8611 43.2077V30.2036H36.8601Z" fill="#202024"/>
<path d="M41.2237 42.3756V37.0833C42.954 38.0662 44.985 38.5956 47.0159 38.5956C47.6933 38.5956 48.4455 38.5197 49.0469 38.4448C48.2197 40.7124 46.0379 42.2248 43.1788 42.4515C42.5024 42.5265 41.8251 42.5265 41.2237 42.3756ZM51.4545 35.5709C51.2287 33.7568 50.4015 32.0936 49.1228 30.808C47.6183 29.2956 45.5114 28.4645 43.3306 28.4645C42.6533 28.4645 41.977 28.5404 41.2996 28.6912V25.5915C41.901 25.6674 42.5034 25.7424 43.1048 25.7424C47.6933 25.7424 51.5304 22.6427 52.7342 18.3333C55.3676 20.1473 57.0978 23.1711 57.0978 26.5735C56.946 30.5063 54.6893 33.9077 51.4545 35.5709ZM50.928 15.2355C49.7242 14.782 48.3706 14.5553 47.0159 14.5553C44.985 14.5553 42.954 15.0847 41.2237 16.0676V8.1291C41.2986 8.1291 41.2986 8.1291 41.3746 8.1291C41.901 8.1291 42.5024 8.1291 43.0299 8.20502C47.6183 8.58262 50.7022 11.3037 50.928 15.2355ZM43.2547 30.5063C46.6403 30.5063 49.2727 33.0006 49.4235 36.2521C48.6713 36.4789 47.8441 36.5548 47.0159 36.5548C44.91 36.5548 42.954 35.8745 41.2237 34.6648V30.8089C41.901 30.6571 42.5774 30.5063 43.2547 30.5063ZM41.2237 18.4861C42.8791 17.2764 44.91 16.5961 47.0159 16.5961C48.3696 16.5961 49.5734 16.8228 50.7772 17.3523C50.0249 20.9814 46.8651 23.7025 43.0289 23.7025C42.4275 23.7025 41.8251 23.6266 41.2237 23.4758V18.4861ZM39.1927 43.2067C39.1927 43.6603 39.4935 44.0388 39.8701 44.1897C40.6972 44.4164 41.5254 44.5673 42.5034 44.5673C42.8041 44.5673 43.1048 44.5673 43.4065 44.5673C45.5883 44.4164 47.6193 43.5843 49.0489 42.1479C50.2527 41.0141 51.0798 39.5017 51.3806 37.8385C55.8191 36.0993 59.0539 31.715 59.0539 26.6494C59.0539 22.1891 56.6463 18.2583 53.0359 16.2165C53.0359 16.0657 53.0359 15.9138 53.0359 15.763C53.0359 10.4706 49.1238 6.61573 43.2567 6.23714C42.2786 6.16123 41.1508 6.0863 40.1727 6.23714C39.6463 6.31306 39.2696 6.76658 39.2696 7.29601V24.23V30.1267C39.2696 30.1267 39.2696 30.1267 39.2696 30.2026V43.2058H39.1927V43.2067Z" fill="#202024"/>
</svg>
