<svg width="41" height="40" viewBox="0 0 41 40" fill="none" xmlns="http://www.w3.org/2000/svg">
<path d="M30.6667 21.6667H22.3333V30C22.3333 30.9167 21.5833 31.6667 20.6667 31.6667C19.75 31.6667 19 30.9167 19 30V21.6667H10.6667C9.75 21.6667 9 20.9167 9 20C9 19.0834 9.75 18.3334 10.6667 18.3334H19V10C19 9.08337 19.75 8.33337 20.6667 8.33337C21.5833 8.33337 22.3333 9.08337 22.3333 10V18.3334H30.6667C31.5833 18.3334 32.3333 19.0834 32.3333 20C32.3333 20.9167 31.5833 21.6667 30.6667 21.6667Z" fill="url(#paint0_linear_1154_9001)"/>
<defs>
<linearGradient id="paint0_linear_1154_9001" x1="34.2564" y1="14.8398" x2="-0.502805" y2="16.0464" gradientUnits="userSpaceOnUse">
<stop stop-color="#8015E8"/>
<stop offset="1" stop-color="#670AFF"/>
</linearGradient>
</defs>
</svg>
