<svg width="204" height="204" viewBox="0 0 204 204" fill="none" xmlns="http://www.w3.org/2000/svg">
<path d="M97.6649 24.3274C97.3989 19.8065 93.5066 16.3154 89.0348 17.0314C75.7625 19.1566 63.1713 24.5203 52.4009 32.7012C41.6305 40.8821 33.0855 51.5728 27.4776 63.7885C25.5882 67.9043 27.9072 72.5905 32.191 74.0596C36.4748 75.5287 41.0931 73.2163 43.0849 69.1491C47.5685 59.9934 54.1427 51.9728 62.3207 45.761C70.4988 39.5492 79.989 35.3676 90.0119 33.5046C94.4644 32.677 97.931 28.8483 97.6649 24.3274Z" fill="white" fill-opacity="0.1"/>
<path d="M102 26C102 20.4772 106.494 15.9371 111.976 16.609C125.554 18.2732 138.557 23.3166 149.763 31.3466C163.69 41.3264 174.141 55.4179 179.648 71.642C185.156 87.8661 185.443 105.408 180.469 121.803C175.496 138.199 165.511 152.625 151.918 163.055C138.326 173.485 121.807 179.396 104.683 179.956C87.5588 180.517 70.6891 175.699 56.4432 166.181C42.1974 156.662 31.2909 142.92 25.2557 126.885C20.3996 113.982 18.8935 100.117 20.8004 86.5701C21.5703 81.1011 27.1187 77.9356 32.4533 79.365L89.4118 94.627C95.763 96.3288 102 91.543 102 84.9678V26Z" fill="url(#paint0_linear_981_6672)" fill-opacity="0.1"/>
<g filter="url(#filter0_d_981_6672)">
<path d="M102 24.2C102 19.6713 105.68 15.9575 110.187 16.4096C124.411 17.8367 138.066 22.9646 149.763 31.3466C163.69 41.3264 174.141 55.4179 179.648 71.642C185.156 87.8661 185.443 105.408 180.469 121.803C175.496 138.199 165.511 152.625 151.918 163.055C138.326 173.485 121.807 179.396 104.683 179.956C87.5588 180.517 70.6891 175.699 56.4432 166.181C42.1974 156.662 31.2909 142.92 25.2557 126.885C20.1867 113.417 18.7679 98.8992 21.0709 84.7905C21.8005 80.3209 26.3403 77.727 30.7147 78.8992C35.0891 80.0713 37.6304 84.5677 37.0128 89.0542C35.5296 99.8285 36.7434 110.849 40.6046 121.108C45.4328 133.936 54.1579 144.929 65.5546 152.544C76.9513 160.159 90.447 164.013 104.146 163.565C117.846 163.116 131.061 158.388 141.935 150.044C152.809 141.7 160.796 130.159 164.775 117.043C168.754 103.926 168.524 89.8928 164.119 76.9136C159.713 63.9343 151.352 52.6611 140.211 44.6773C131.3 38.2924 120.97 34.2678 110.179 32.9118C105.686 32.3472 102 28.7287 102 24.2Z" fill="url(#paint1_linear_981_6672)"/>
</g>
<g filter="url(#filter1_f_981_6672)">
<path d="M102 23C117.671 23 132.948 27.9086 145.686 37.0365C158.424 46.1644 167.983 59.0529 173.02 73.892C178.057 88.7312 178.32 104.775 173.771 119.771C169.222 134.767 160.09 147.962 147.657 157.501C135.225 167.041 120.116 172.447 104.454 172.96C88.7916 173.473 73.362 169.066 60.3322 160.36C47.3025 151.654 37.3271 139.085 31.8071 124.419C26.287 109.752 25.4997 93.7254 29.5556 78.5886" stroke="white"/>
</g>
<defs>
<filter id="filter0_d_981_6672" x="0" y="0.372253" width="204" height="203.628" filterUnits="userSpaceOnUse" color-interpolation-filters="sRGB">
<feFlood flood-opacity="0" result="BackgroundImageFix"/>
<feColorMatrix in="SourceAlpha" type="matrix" values="0 0 0 0 0 0 0 0 0 0 0 0 0 0 0 0 0 0 127 0" result="hardAlpha"/>
<feOffset dy="4"/>
<feGaussianBlur stdDeviation="10"/>
<feComposite in2="hardAlpha" operator="out"/>
<feColorMatrix type="matrix" values="0 0 0 0 0.189444 0 0 0 0 0.195352 0 0 0 0 0.366667 0 0 0 0.5 0"/>
<feBlend mode="normal" in2="BackgroundImageFix" result="effect1_dropShadow_981_6672"/>
<feBlend mode="normal" in="SourceGraphic" in2="effect1_dropShadow_981_6672" result="shape"/>
</filter>
<filter id="filter1_f_981_6672" x="19.5" y="15.5" width="165" height="165" filterUnits="userSpaceOnUse" color-interpolation-filters="sRGB">
<feFlood flood-opacity="0" result="BackgroundImageFix"/>
<feBlend mode="normal" in="SourceGraphic" in2="BackgroundImageFix" result="shape"/>
<feGaussianBlur stdDeviation="3.5" result="effect1_foregroundBlur_981_6672"/>
</filter>
<linearGradient id="paint0_linear_981_6672" x1="150.069" y1="152.855" x2="65.2414" y2="63.5035" gradientUnits="userSpaceOnUse">
<stop stop-color="white"/>
<stop offset="1" stop-color="white" stop-opacity="0"/>
</linearGradient>
<linearGradient id="paint1_linear_981_6672" x1="13.6598" y1="8.84563" x2="201.89" y2="23.3729" gradientUnits="userSpaceOnUse">
<stop stop-color="#23EEC9"/>
<stop offset="0.648958" stop-color="#7D3FFF"/>
<stop offset="1" stop-color="#4D54FF"/>
</linearGradient>
</defs>
</svg>
