<svg width="14" height="14" viewBox="0 0 14 14" fill="none" xmlns="http://www.w3.org/2000/svg">
<path d="M4.6192 12.1836C9.4622 12.1836 12.1107 8.1699 12.1107 4.68935C12.1107 4.57537 12.1083 4.4619 12.1032 4.34891C12.6185 3.97588 13.0633 3.51402 13.4166 2.98497C12.9448 3.19479 12.4371 3.33601 11.9045 3.39968C12.4482 3.07361 12.8655 2.55774 13.0624 1.94284C12.5455 2.24956 11.9801 2.46578 11.3905 2.58218C10.91 2.07021 10.226 1.75 9.46854 1.75C8.01451 1.75 6.83541 2.92957 6.83541 4.38357C6.83541 4.59029 6.85854 4.79129 6.90372 4.98416C4.7154 4.874 2.77496 3.8259 1.47632 2.23219C1.24242 2.63415 1.11939 3.09099 1.1198 3.55606C1.1198 4.46988 1.58462 5.27658 2.29149 5.74855C1.87337 5.73577 1.46442 5.62279 1.09904 5.41911C1.09865 5.43017 1.09865 5.44094 1.09865 5.45276C1.09865 6.72834 2.00621 7.79338 3.21098 8.03471C2.98471 8.09635 2.75122 8.12752 2.5167 8.12738C2.34734 8.12738 2.18228 8.11072 2.02186 8.07991C2.35707 9.12645 3.32906 9.88803 4.48148 9.90931C3.58031 10.6159 2.4451 11.0368 1.2113 11.0368C1.00142 11.0369 0.791704 11.0248 0.583252 11.0003C1.74853 11.7475 3.13218 12.1834 4.61934 12.1834" fill="white"/>
</svg>
