<svg width="100" height="31" viewBox="0 0 100 31" fill="none" xmlns="http://www.w3.org/2000/svg">
<g clip-path="url(#clip0_1650_3833)">
<path d="M0 1.0144H3.01714L8.19429 13.1687H5.14286L0 1.0144Z" fill="#231F20"/>
<path d="M19.8514 12.9972L22.68 13.1687L27.96 0.705811H24.8743L19.8514 12.9972Z" fill="#231F20"/>
<path d="M33.2743 0.5H36.1886L36.3257 9.65429L33.2743 16.22V0.5Z" fill="#231F20"/>
<path d="M84.2229 0.705811H86.8972L74.7943 30.3972H71.64L84.2229 0.705811Z" fill="#231F20"/>
<path d="M87.1371 7.40867L88.3543 4.49438L99.6686 30.3972H96.7886L92.04 18.7572H82.0286L83.0057 16.1515L90.7543 16.1001L87.1371 7.40867Z" fill="#231F20"/>
<path d="M33.2743 22.1858L36.0857 15.8772V30.3972H33.2743V22.1858Z" fill="#231F20"/>
<path d="M6.7714 15.8772H9.49712L14.1257 26.8658L18.6685 15.8772H21.5485L15.3771 30.3972H12.7028L6.59998 15.8772" fill="#231F20"/>
<path d="M43.68 1.0144H46.6971L51.8914 13.1687H48.84L43.68 1.0144Z" fill="#231F20"/>
<path d="M63.5486 12.9972L66.36 13.1687L71.64 0.705811H68.5543L63.5486 12.9972Z" fill="#231F20"/>
<path d="M50.4685 15.8772H53.1771L57.8228 26.8658L62.3486 15.8772H65.2285L59.0743 30.3972H56.4L50.2971 15.8772" fill="#231F20"/>
</g>
<defs>
<clipPath id="clip0_1650_3833">
<rect width="100" height="30" fill="white" transform="translate(0 0.5)"/>
</clipPath>
</defs>
</svg>
