<svg width="14" height="14" viewBox="0 0 14 14" fill="none" xmlns="http://www.w3.org/2000/svg">
<g clip-path="url(#clip0_1704_5175)">
<path d="M7.31016 11.7715L4.4379 11.7189C3.50793 11.7006 2.57564 11.7372 1.6639 11.5475C0.27694 11.2642 0.178682 9.87492 0.075866 8.70957C-0.0658041 7.07125 -0.0109594 5.40319 0.25639 3.77854C0.407318 2.86694 1.00128 2.32299 1.91982 2.26379C5.02058 2.04897 8.14195 2.07443 11.2358 2.17465C11.5626 2.18384 11.8916 2.23406 12.2138 2.29122C13.8042 2.57 13.843 4.14436 13.9461 5.46968C14.0489 6.80867 14.0055 8.15454 13.809 9.48441C13.6513 10.5855 13.3497 11.5089 12.0767 11.598C10.4817 11.7146 8.92331 11.8084 7.32384 11.7786C7.32391 11.7715 7.31472 11.7715 7.31016 11.7715ZM5.62155 8.9838C6.8235 8.29368 8.00252 7.61507 9.1976 6.92958C7.9934 6.23946 6.81663 5.56085 5.62155 4.87536V8.9838Z" fill="white"/>
</g>
<defs>
<clipPath id="clip0_1704_5175">
<rect width="14" height="14" fill="white"/>
</clipPath>
</defs>
</svg>
